<svg width="604" height="663" viewBox="0 0 604 663" fill="none" xmlns="http://www.w3.org/2000/svg">
<path d="M191.361 248.461C186.083 230.99 195.917 214.345 213.338 211.268C230.749 208.189 249.146 219.857 254.428 237.331C273.024 298.853 316.735 357.309 365.797 386.268C373.453 390.78 382.672 395.39 392.854 398.825C372.068 352.927 366.625 307.165 378.062 270.806C393.041 223.229 434.735 199.355 484.302 209.982C533.886 220.61 567.358 255.483 573.861 303.259C578.209 335.235 569.695 370.914 550.503 401.176C537.483 421.705 520.606 438.271 501.327 449.798C516.031 465.567 686.736 592.231 709.7 609.096L679.498 662.49C643.714 636.82 460.889 498.573 436.552 468.526C404.375 469.568 370.422 459.988 336.825 440.165C271.112 401.38 215.367 327.931 191.355 248.462L191.361 248.461ZM493.285 362.862C505.279 343.967 510.978 321.989 508.546 304.093C506.105 286.172 496.872 276.761 477.691 272.647C460.644 268.997 450.934 276.708 445.395 286.501C443.637 289.609 442.301 292.93 441.289 296.157C433.349 321.408 440.321 357.841 459.943 393.595C460.166 393.999 460.39 394.403 460.614 394.807C473.165 387.659 484.575 376.621 493.287 362.869L493.285 362.862Z" fill="#495AF7"/>
<path d="M119.728 182.318C100.812 170.772 71.8612 159.76 76.6819 149.789C81.5026 139.818 98.451 145.487 117.578 153.694C106.508 135.968 93.6438 85.0924 107.433 82.4161C121.222 79.7398 127.703 107.216 127.703 107.216C127.703 107.216 128.217 86.9051 130.792 76.5453C133.368 66.1855 143.816 64.7223 149.982 73.7466C156.149 82.771 149.966 102.947 153.152 117.516C156.336 132.088 171.484 142.665 171.484 142.665C171.484 142.665 174.073 135.417 187.074 126.227C200.075 117.037 236.801 124.015 241.081 136.985C249.391 124.611 263.398 136.309 262.639 144.876C261.881 153.443 257.301 166.301 258.738 180.52C260.171 194.737 272.595 240.318 259.445 257.88C240.906 280.318 197.716 263.192 197.716 263.192C188.756 233.473 138.643 193.867 119.726 182.321L119.728 182.318ZM228.845 178.776C238.812 171.538 230.909 156.415 235.128 148.079C224.676 149.54 214.224 142.147 214.224 142.147C214.224 142.147 208.896 148.973 198.016 148.251C188.236 154.784 191.729 170.091 196.357 175.428C200.98 180.761 218.877 186.015 228.845 178.776Z" fill="#495AF7"/>
<path d="M156.984 178.012C154.164 176.074 136.94 164.38 117.856 154.192C117.446 153.531 117.034 152.823 116.62 152.078C135.897 162.217 153.688 174.207 157.39 176.738C158.705 172.635 160.522 167.597 163.021 161.599C156.861 151.856 136.329 138.145 136.125 138.008C135.921 137.872 135.784 137.655 135.76 137.431C135.745 137.284 134.134 122.429 128.046 107.425C128.064 106.846 128.124 104.91 128.258 102.201L129.358 107.12C134.988 121.005 136.829 134.747 137.119 137.135C139.801 138.941 157.125 150.804 163.63 160.166C164.341 158.496 165.092 156.764 165.91 154.953C166.057 154.627 166.465 154.519 166.826 154.712C167.187 154.906 167.361 155.324 167.214 155.65C156.786 178.81 155.431 190.584 155.418 190.698C155.404 190.837 155.343 190.957 155.255 191.044C155.111 191.189 154.889 191.25 154.647 191.191C154.259 191.098 153.98 190.726 154.019 190.359C154.049 190.077 154.517 186.008 156.995 178.013L156.984 178.012Z" fill="white"/>
<path d="M235.278 253.968C235.302 253.947 235.32 253.923 235.339 253.9C239.026 248.822 242.582 235.57 229.662 221.771C223.775 215.481 215.465 211.848 206.668 208C196.881 203.72 186.758 199.298 178.066 190.731C177.776 190.446 177.332 190.407 177.079 190.648C176.811 190.905 176.853 191.319 177.142 191.604C186.058 200.39 196.79 205.084 206.259 209.223C214.892 212.999 223.048 216.561 228.691 222.595C240.961 235.699 237.629 248.223 234.155 253.01C233.95 253.296 234.049 253.72 234.376 253.968C234.672 254.191 235.061 254.185 235.281 253.964L235.278 253.968Z" fill="white"/>
<path d="M235.429 147.365C237.835 145.715 242.644 141.62 241.508 135.95C241.519 135.982 241.532 136.011 241.543 136.043C241.882 135.541 242.233 135.091 242.592 134.668C244.252 139.754 241.678 143.759 239.079 146.304C237.05 148.288 235.011 149.386 234.964 149.409C234.872 149.459 234.771 149.474 234.665 149.475C234.857 148.738 235.108 148.032 235.433 147.367L235.429 147.365Z" fill="white"/>
</svg>
