<svg width="1921" height="1442" viewBox="0 0 1921 1442" fill="none" xmlns="http://www.w3.org/2000/svg">
<g opacity="0.1">
<path d="M1920 796.79H0" stroke="white" stroke-width="0.9421"/>
<path d="M1920 1183.26H0" stroke="white" stroke-width="0.9421"/>
<path d="M1920 1053.8H0" stroke="white" stroke-width="0.9421"/>
<path d="M1920 925.295H0" stroke="white" stroke-width="0.9421"/>
<path d="M1920 1312.73H0" stroke="white" stroke-width="0.9421"/>
<path d="M1920 1441.23H0" stroke="white" stroke-width="0.9421"/>
<path d="M1920 152.346H0" stroke="white" stroke-width="0.9421"/>
<path d="M1920 539.779H0" stroke="white" stroke-width="0.9421"/>
<path d="M1920 410.315H0" stroke="white" stroke-width="0.9421"/>
<path d="M1920 281.81H0" stroke="white" stroke-width="0.9421"/>
<path d="M1920 668.285H0" stroke="white" stroke-width="0.9421"/>
<path d="M759.524 1441.23L759.524 0.824707" stroke="white" stroke-width="0.9421"/>
<path d="M373.049 1441.23L373.049 0.824707" stroke="white" stroke-width="0.9421"/>
<path d="M501.554 1441.23L501.554 0.824707" stroke="white" stroke-width="0.9421"/>
<path d="M631.018 1441.23L631.018 0.824707" stroke="white" stroke-width="0.9421"/>
<path d="M244.543 1441.23L244.543 0.824707" stroke="white" stroke-width="0.9421"/>
<path d="M116.038 1441.23L116.038 0.824707" stroke="white" stroke-width="0.9421"/>
<path d="M1403.97 1441.23L1403.97 0.824707" stroke="white" stroke-width="0.9421"/>
<path d="M1919.91 1441.23L1919.91 0.824707" stroke="white" stroke-width="0.9421"/>
<path d="M1017.49 1441.23L1017.49 0.824707" stroke="white" stroke-width="0.9421"/>
<path d="M1533.43 1441.23L1533.43 0.824707" stroke="white" stroke-width="0.9421"/>
<path d="M1146.96 1441.23L1146.96 0.824707" stroke="white" stroke-width="0.9421"/>
<path d="M1660.98 1441.23L1660.98 0.824707" stroke="white" stroke-width="0.9421"/>
<path d="M1275.46 1441.23L1275.46 0.824707" stroke="white" stroke-width="0.9421"/>
<path d="M1790.44 1441.23L1790.44 0.824707" stroke="white" stroke-width="0.9421"/>
<path d="M888.988 1441.23L888.988 0.824707" stroke="white" stroke-width="0.9421"/>
</g>
</svg>
