<svg width="800" height="1322" viewBox="0 0 800 1322" fill="none" xmlns="http://www.w3.org/2000/svg">
<path d="M484.92 527.362C498.772 546.81 511.596 577.228 523.774 623.378C525.596 629.975 527.263 637.072 528.699 644.668C531.787 661.002 533.903 680.896 533.137 703.502C531.996 737.371 524.37 777.294 503.799 820.321C502.754 822.527 501.657 824.725 500.547 826.943C487.635 852.48 471.537 877.374 455.975 901.452C427.683 945.219 398.413 990.489 391.874 1035.14C389.571 1050.9 410.039 1229.86 419.369 1256.13L332.667 1321.57C309.76 1274.41 280.952 1068.41 288.182 1019.07C298.196 950.689 335.636 892.764 368.683 841.662C372.254 836.141 375.771 830.688 379.21 825.323C389.891 808.599 399.718 792.558 407.509 777.135C417.727 756.899 423.473 737.912 426.252 720.694C435.383 664.103 412.618 626.51 412.314 626.031C396.225 601.248 402.692 567.709 426.769 551.154C438.515 543.074 452.277 540.543 465.16 542.92C462.42 531.507 461.349 519.025 462.833 505.517C470.511 510.376 477.843 517.441 484.918 527.373L484.92 527.362Z" fill="#495AF7"/>
<path d="M673.551 0.561035L388.98 108.594L479.149 124.046L495.225 184.263L538.058 150.933L580.718 185.02L673.551 0.561035Z" fill="white"/>
<path d="M478.565 123.072C478.498 123.111 478.438 123.165 478.385 123.211L477.77 123.806L479.15 124.046L479.488 125.297L479.833 124.957L666.032 6.68709L494.889 182.995L495.227 184.27L501.666 179.264L632.026 44.9773L537.249 150.167C537.069 150.368 536.964 150.631 536.949 150.901L536.911 151.844L538.06 150.948L539.14 151.813L539.155 151.419L671.631 4.39247L673.553 0.575806L668.276 2.57685L478.565 123.08V123.072Z" fill="#495AF7"/>
<path d="M487.207 555.044C487.207 555.044 461.8 623.439 410.854 623.614C365.591 577.981 328.888 550.127 301.347 527.013C273.806 503.9 260.746 496.373 252.312 470.493C243.874 444.608 236.78 420.257 239.99 409.825C243.189 399.391 260.779 400.38 267.653 418.744C274.532 437.114 277.109 452.001 283.508 463.138C289.907 474.276 312.11 488.899 312.11 488.899C312.11 488.899 290.472 456.051 285.324 426.274C280.17 396.501 291.863 359.221 295.611 348.927C299.358 338.634 323.041 338.237 319.45 361.606C315.86 384.975 312.419 407.792 317.171 420.872C321.922 433.952 336.548 448.99 336.548 448.99C336.548 448.99 342.365 403.082 358.637 384.173C374.909 365.263 382.371 363.044 390.113 359.705C397.859 356.373 416.759 361.254 407.128 378.918C401.479 389.903 392.081 397.551 390.798 404.922C407.082 399.646 442.592 409.409 444.67 419.427C446.748 429.445 436.46 445.16 411.515 434.569C400.208 458.907 407.783 474.496 430.826 485.78C453.87 497.064 491.918 516.717 487.223 555.041L487.207 555.044Z" fill="#495AF7"/>
<path d="M390.514 402.506C373.431 409.612 367.359 455.128 367.11 457.06C367.031 457.683 367.458 458.257 368.067 458.339C368.677 458.422 369.231 457.994 369.32 457.345C369.379 456.89 375.256 412.714 390.568 404.983C390.735 404.036 391.043 403.079 391.455 402.11L390.514 402.506Z" fill="white"/>
<path d="M334.418 446.561C333.264 456.656 337.985 473.997 338.205 474.767C338.375 475.374 338.989 475.723 339.585 475.549C339.98 475.433 340.266 475.112 340.363 474.723C340.414 474.531 340.408 474.326 340.358 474.124C340.31 473.951 336.145 458.654 336.499 448.802C336.346 448.64 335.582 447.841 334.429 446.563L334.418 446.561Z" fill="white"/>
</svg>
