<svg width="337" height="792" viewBox="0 0 337 792" fill="none" xmlns="http://www.w3.org/2000/svg">
<g clip-path="url(#clip0_170_1238)">
<path d="M214.338 471.384C250.404 585.667 239.882 693.12 183.144 791.675H296.782C344.781 680.452 349.378 559.414 309.331 435.399C268.733 309.675 196.204 225.622 193.14 222.103C174.478 200.712 142.49 198.936 121.696 218.133C100.935 237.314 99.1923 270.154 117.773 291.545C119.029 293.021 181.045 365.891 214.338 471.375V471.384Z" fill="#495AF7"/>
<path d="M160.122 346.677C160.122 346.677 226.012 315.979 222.672 262.707C222.672 262.707 200.752 218.675 193.934 168.981C187.117 119.287 188.252 84.7949 172.338 83.0437C156.425 81.2924 149.04 123.965 152.445 157.289C155.29 168.397 151.877 177.754 151.877 177.754C151.877 177.754 49.0128 107.603 30.8298 94.1517C12.6467 80.7086 -4.96891 94.1517 1.28127 106.427C7.53145 118.703 76.2996 174.243 76.2996 174.243C76.2996 174.243 39.3579 231.535 50.1559 269.537C60.9538 307.54 130.289 340.797 160.122 346.677Z" fill="#495AF7"/>
<path d="M146.761 51.4792H41.0596C36.6658 51.4792 33.107 55.1486 33.107 59.6602V308.708C33.107 313.228 36.6739 316.889 41.0596 316.889H146.761C151.155 316.889 154.714 313.219 154.714 308.708V59.6602C154.714 55.1402 151.147 51.4792 146.761 51.4792Z" fill="url(#paint0_linear_170_1238)"/>
<path d="M123.423 164.807C121.02 162.386 115.201 158.853 112.377 157.429C108.7 155.577 108.398 155.426 105.508 157.573C103.58 159.006 102.298 160.286 100.042 159.805C97.7859 159.324 92.8833 156.611 88.5905 152.332C84.2977 148.053 81.4273 143.009 80.9446 140.76C80.4619 138.512 81.7632 137.245 83.1825 135.313C85.1829 132.59 85.0316 132.136 83.3217 128.459C81.9886 125.599 78.3525 119.835 75.9224 117.444C73.3228 114.876 73.3228 115.33 71.6478 116.026C70.284 116.6 68.9757 117.297 67.7393 118.11C65.3182 119.718 63.9746 121.054 63.0349 123.062C62.0952 125.07 61.6731 129.777 66.5257 138.592C71.3784 147.407 74.783 151.914 81.8298 158.941C88.8765 165.968 94.2951 169.746 102.216 174.188C112.016 179.676 115.774 178.606 117.788 177.668C119.802 176.73 121.144 175.398 122.756 172.978C123.571 171.743 124.27 170.437 124.844 169.074C125.542 167.405 125.996 167.405 123.423 164.807Z" stroke="white" stroke-width="2.33132" stroke-miterlimit="10"/>
<path d="M41.0598 54.3979C38.2387 54.3979 35.9446 56.758 35.9446 59.6601V308.707C35.9446 311.61 38.2387 313.97 41.0598 313.97H146.762C149.583 313.97 151.877 311.61 151.877 308.707V59.6601C151.877 56.758 149.583 54.3979 146.762 54.3979H41.0598ZM41.0598 48.552H146.762C152.728 48.552 157.56 53.5223 157.56 59.6601V308.707C157.56 314.845 152.728 319.816 146.762 319.816H41.0598C35.0934 319.816 30.2619 314.845 30.2619 308.707V59.6601C30.2619 53.5223 35.0934 48.552 41.0598 48.552Z" fill="white"/>
<path d="M27.9933 140.335C12.0963 129.436 -0.987728 155.538 12.0801 167.23C25.1479 178.922 43.9065 183.016 45.6089 171.908C47.3113 160.8 43.3391 150.86 27.9933 140.335Z" fill="#495AF7"/>
<path d="M29.1268 184.184C13.0434 174.535 2.98309 191.781 12.0787 203.473C21.1743 215.165 39.9248 218.092 42.7702 210.486C45.6156 202.889 42.7702 192.365 29.1349 184.176L29.1268 184.184Z" fill="#495AF7"/>
<path d="M42.2026 240.892C44.3509 223.921 24.0195 222.186 13.789 220.427C3.55852 218.676 -2.69164 239.132 10.9436 247.321C24.5789 255.502 40.4921 254.335 42.2026 240.892Z" fill="#495AF7"/>
<path d="M159.644 199.97C159.644 199.97 145.627 217.116 145.246 249.856C144.865 282.597 160.397 296.232 160.397 296.232L159.635 199.962L159.644 199.97Z" fill="#495AF7"/>
<path d="M170.069 304.029C170.498 304.029 170.912 303.77 171.106 303.345C171.366 302.761 171.106 302.061 170.539 301.794C160.608 297.149 152.599 285.966 148.578 271.113C142.141 247.355 147.127 219.91 161.913 197.702C162.27 197.168 162.132 196.443 161.621 196.076C161.103 195.709 160.397 195.85 160.041 196.376C144.881 219.151 139.774 247.321 146.389 271.739C150.597 287.259 159.052 298.984 169.598 303.921C169.752 303.996 169.906 304.029 170.069 304.029Z" fill="white"/>
<path d="M90.1296 63.1709C90.1296 65.3224 91.8239 67.0654 93.9154 67.0654C96.0069 67.0654 97.7012 65.3224 97.7012 63.1709C97.7012 61.0193 96.0069 59.2764 93.9154 59.2764C91.8239 59.2764 90.1296 61.0193 90.1296 63.1709Z" fill="white"/>
<path d="M94.7814 32.2985C95.3894 32.2985 95.9001 31.8148 95.9487 31.181L98.024 1.29265C98.0726 0.633842 97.5862 0.0584246 96.9458 0.00838828C96.2568 -0.0916844 95.746 0.458715 95.6974 1.11753L93.6221 31.0059C93.5735 31.6647 94.0599 32.2401 94.7003 32.2902C94.7327 32.2902 94.757 32.2902 94.7814 32.2902V32.2985Z" fill="white"/>
<path d="M86.4805 32.2985C86.5778 32.2985 86.6751 32.2818 86.7804 32.2568C87.4047 32.09 87.7776 31.4312 87.6154 30.789L82.4272 10.5076C82.2651 9.8655 81.6328 9.46521 81.0004 9.64868C80.3762 9.81547 80.0033 10.4743 80.1655 11.1164L85.3537 31.3978C85.4915 31.9399 85.9617 32.2985 86.4805 32.2985Z" fill="white"/>
<path d="M79.2176 36.5683C79.6473 36.5683 80.0607 36.3265 80.2634 35.9012C80.5552 35.3091 80.3201 34.5835 79.7364 34.2917L56.9083 22.5498C56.3327 22.2496 55.6356 22.4914 55.3437 23.0919C55.0519 23.684 55.287 24.4011 55.8707 24.7014L78.6988 36.4432C78.869 36.5266 79.0474 36.5683 79.2176 36.5683Z" fill="white"/>
</g>
<defs>
<linearGradient id="paint0_linear_170_1238" x1="119.512" y1="-109.163" x2="89.0888" y2="478.617" gradientUnits="userSpaceOnUse">
<stop stop-color="#1F1F1F"/>
<stop offset="1"/>
</linearGradient>
<clipPath id="clip0_170_1238">
<rect width="336.391" height="791.675" fill="white" transform="matrix(-1 0 0 1 336.391 0)"/>
</clipPath>
</defs>
</svg>
