<svg width="462" height="743" viewBox="0 0 462 743" fill="none" xmlns="http://www.w3.org/2000/svg">
<path d="M148.61 324.409C142.528 273.126 145.801 228.427 148.965 185.194C153.165 127.794 156.684 79.876 137.79 27.882L203.539 0.000748021C228.722 69.5914 224.116 132.414 219.633 193.599C213.701 274.658 208.104 351.218 265.643 457.565C275.886 476.502 270.666 500.759 253.975 511.76C237.29 522.746 215.461 516.305 205.205 497.362C174.113 439.879 155.596 383.307 148.605 324.411L148.61 324.409Z" fill="#495AF7"/>
<path d="M199.413 482.713C199.413 482.713 231.149 440.885 264.156 452.797C285.364 471.448 316.618 509.252 326.272 530.475C335.925 551.697 330.667 567.618 311.825 564.56C325.731 582.657 310.83 600.92 298.633 595.71C309.186 615.474 289.812 626.418 278.615 617.967C309.326 655.751 326.929 675.764 331.973 682.503C337.023 689.245 341.286 700.134 333.22 708.197C325.149 716.262 310.276 700.823 296.048 683.608C281.822 666.399 243.706 620.299 243.706 620.299C243.706 620.299 234.384 621.761 228.286 614.38C222.19 607.005 193.171 577.634 195.568 549.979C197.965 522.325 202.413 501.598 199.421 482.703L199.413 482.713Z" fill="#495AF7"/>
<path d="M280.221 604.253C279.079 614.201 266.827 616.091 253.862 618.094C250.358 618.635 246.764 619.203 243.308 619.933C243.449 620.099 243.851 620.594 244.496 621.372C247.622 620.746 250.866 620.237 254.029 619.751C261.884 618.54 269.485 617.363 274.752 614.409L277.975 617.757C277.918 617.687 277.862 617.621 277.805 617.551C279.16 618.578 280.642 619.314 282.171 619.784L276.156 613.539C279.213 611.441 281.251 608.558 281.728 604.419C282.281 599.586 280.61 595.061 276.891 591.332C271.302 585.728 262.009 582.877 252.445 583.513C250.811 580.198 250.995 575.998 252.967 572.68C255.498 568.417 260.391 566.369 266.401 567.03C279.399 579.443 291.244 589.969 297.681 595.593C297.66 595.548 297.639 595.504 297.613 595.461C298.723 595.936 299.857 596.208 300.988 596.312C295.466 591.527 282.172 579.846 267.383 565.722C265.432 560.011 265.967 554.355 268.868 550.186C272.03 545.636 277.501 543.386 283.899 543.983L310.819 564.568C311.907 564.74 312.953 564.853 313.948 564.898L284.798 542.609C282.944 537.985 282.972 531.082 289.066 526.547C294.712 522.348 312.927 525.108 329.38 545.347C329.251 544.329 329.065 543.275 328.839 542.203C312.777 523.695 294.883 520.228 288.238 525.171C287.555 525.679 286.941 526.21 286.39 526.762C281.722 531.439 281.511 537.618 283 542.242C276.522 541.939 270.976 544.439 267.66 549.202C264.612 553.587 263.883 559.388 265.606 565.285C259.447 564.882 254.421 567.218 251.696 571.802C249.549 575.414 249.235 579.93 250.78 583.657C249.334 583.813 247.884 584.054 246.446 584.375C244.361 579.577 242.227 575.553 240.306 572.323C240.45 572.325 240.595 572.297 240.724 572.204C253.878 563.028 262.465 548.305 264.285 531.816C265.912 517.065 261.811 502.839 253.315 493.759C253.027 493.454 252.574 493.456 252.274 493.758C252.262 493.77 252.249 493.781 252.238 493.798C251.94 494.135 251.939 494.665 252.236 494.978C260.405 503.704 264.342 517.42 262.772 531.664C261.008 547.642 252.688 561.903 239.937 570.804C239.789 570.905 239.697 571.055 239.638 571.219C236.277 565.738 233.724 562.843 233.552 562.649C233.27 562.33 232.805 562.326 232.502 562.635C232.492 562.639 232.484 562.649 232.481 562.656C232.179 562.983 232.167 563.511 232.457 563.839C232.523 563.918 239.266 571.553 245.32 585.699C245.466 586.043 245.809 586.221 246.152 586.14C257.381 583.448 269.313 586.041 275.847 592.59C279.2 595.946 280.708 599.984 280.22 604.266L280.221 604.253Z" fill="white"/>
</svg>
