<svg width="200" height="601" viewBox="0 0 200 601" fill="none" xmlns="http://www.w3.org/2000/svg">
<path d="M170.457 588.602L98.5543 588.607C78.0076 523.904 45.0425 363.488 44.1651 240.972C44.0183 219.824 59.4753 203.617 78.7268 204.774C97.9685 205.933 113.688 224.002 113.834 245.15C114.565 347.727 144.371 498.602 159.464 551.37C163.183 564.381 166.914 576.158 170.453 586.608L170.457 588.602Z" fill="#495AF7"/>
<path d="M112.939 270.489C112.939 270.489 67.8768 285.899 44.3269 257.016C36.2862 237.946 26.9862 208.965 28.1753 185.012C29.3645 161.059 34.9588 40.4484 37.2955 24.2844C39.6322 8.12032 57.7732 5.74273 59.8724 25.3123C61.9717 44.8818 62.3572 114.46 62.3572 114.46L72.2802 115.392C72.2802 115.392 90.6326 31.4564 96.6189 19.0014C102.605 6.54635 121.955 10.7577 118.718 29.6141C115.48 48.4706 100.01 120.734 100.437 127.621C100.863 134.507 107.161 138.972 107.161 138.972C107.161 138.972 127.005 133.202 126.423 160.453C141.818 159.312 148.926 170.715 143.426 196.501C137.931 222.286 121.556 259.712 112.943 270.483L112.939 270.489Z" fill="#495AF7"/>
<path d="M55.041 114.441C55.0715 114.443 55.102 114.446 55.1326 114.448C67.2871 114.48 81.6925 117.069 81.8369 117.092C82.2467 117.173 82.6153 116.884 82.6569 116.464C82.7034 116.043 82.4054 115.639 81.9971 115.568C81.8519 115.539 67.3228 112.931 55.0378 112.901C54.6249 112.899 54.3155 113.245 54.3408 113.675C54.3663 114.074 54.6722 114.398 55.0418 114.446L55.041 114.441Z" fill="white"/>
<path d="M134.113 194.571C134.362 194.237 134.294 193.732 133.958 193.442C133.623 193.152 133.149 193.185 132.9 193.518C125.715 203.133 110.317 213.492 101.557 208.516C99.625 207.421 98.3309 205.842 97.7084 203.831C96.0587 198.513 99.4102 191.708 99.7431 191.062C110.399 178.534 121.402 166.176 125.649 161.433C125.629 161.435 125.614 161.436 125.594 161.438C125.611 160.625 125.606 159.842 125.591 159.086C122.499 162.536 110.35 176.116 98.6118 189.909C97.8649 190.316 92.7386 192.968 88.1477 191.384C93.6998 186.254 97.509 180.495 98.2067 175.466C98.676 172.052 97.7164 169.016 95.4245 166.686C91.2386 162.424 86.8269 162.49 82.2237 164.212C91.8013 152.121 102.527 143.229 106.559 140.058C106.52 140.067 106.495 140.075 106.495 140.075C106.495 140.075 105.979 139.703 105.243 139.026C100.638 142.675 89.1103 152.376 79.3159 165.336C79.2731 165.389 79.253 165.456 79.227 165.518C77.4954 166.375 75.7402 167.376 73.9565 168.39C70.5868 170.314 67.0999 172.302 63.5485 173.415C61.7703 173.972 60.019 174.439 58.3321 174.894C48.9759 177.404 40.8964 179.573 35.9114 194.113C35.7754 194.517 35.9809 194.988 36.3758 195.17C36.7699 195.345 37.2002 195.164 37.3412 194.759C42.0803 180.934 49.4658 178.954 58.8169 176.444C60.5189 175.987 62.2845 175.514 64.087 174.949C67.7799 173.796 71.3321 171.769 74.7621 169.807C82.2033 165.558 88.6337 161.887 94.4233 167.786C96.3415 169.742 97.115 172.202 96.7089 175.103C95.5091 183.761 83.7659 195.257 70.5285 200.729C70.3225 200.814 70.1684 201.002 70.1171 201.23C67.6902 211.766 68.9648 216.471 69.0207 216.667C69.1183 217.001 69.3951 217.242 69.7022 217.285C69.7859 217.299 69.8713 217.291 69.96 217.272C70.3585 217.18 70.5823 216.751 70.4647 216.321C70.4531 216.279 69.3004 211.867 71.5023 202.082C74.9929 200.61 78.3492 198.764 81.4337 196.676C102.047 218.509 89.9048 257.73 89.7773 258.123C89.6472 258.533 89.8619 258.997 90.2601 259.167C90.3254 259.194 90.3897 259.215 90.4567 259.22C90.7898 259.265 91.1064 259.073 91.2121 258.736C91.3381 258.333 103.697 218.444 82.6656 195.817C84.1422 194.76 85.5451 193.656 86.8702 192.509C90.7872 194.313 95.0542 193.184 97.4957 192.206C96.4067 194.942 94.9309 199.88 96.2727 204.198C97.0363 206.659 98.6021 208.577 100.926 209.897C102.211 210.628 103.599 211.071 105.061 211.268C114.787 212.588 127.74 203.082 134.115 194.549L134.113 194.571Z" fill="white"/>
<path d="M38.9869 242.446C43.6031 258.783 45.1861 279.626 45.1861 279.626L53.2366 259.83L38.9861 242.44L38.9869 242.446Z" fill="#495AF7"/>
</svg>
