<svg width="676" height="717" viewBox="0 0 676 717" fill="none" xmlns="http://www.w3.org/2000/svg">
<path d="M222.985 248.363C165.118 225.546 112.05 215.644 60.7227 206.065C-7.42366 193.347 -64.3172 182.744 -119.082 144.784L-171.729 212.813C-98.398 263.496 -23.8107 277.405 48.8312 290.956C145.067 308.916 235.958 325.886 342.176 425.534C361.091 443.274 390.946 444.637 408.88 428.571C426.796 412.507 425.991 385.105 407.072 367.347C349.658 313.496 289.445 274.571 222.989 248.358L222.985 248.363Z" fill="white"/>
<path d="M391.786 356.106C391.786 356.106 333.329 380.237 337.077 422.338C352.294 452.763 386.738 500.766 408.496 518.521C430.254 536.276 450.411 535.037 452.631 512.151C469.442 533.901 495.287 522.147 492.96 506.343C512.743 524.698 531.435 505.489 525.026 489.855C559.615 537.218 577.523 563.862 583.826 571.805C590.13 579.756 601.504 588.062 613.371 581.141C625.241 574.214 611.821 552.154 596.135 530.3C580.455 508.449 538.453 449.91 538.453 449.91C538.453 449.91 543.016 439.5 536.29 430.133C529.57 420.769 504.262 377.958 471.316 372.265C438.369 366.572 412.863 365.394 391.772 356.112L391.786 356.106Z" fill="white"/>
<path d="M508.56 487.518C520.497 489.24 526.457 475.549 532.768 461.062C534.473 457.147 536.238 453.135 538.148 449.334C538.299 449.548 538.751 450.169 539.459 451.158C537.772 454.608 536.183 458.23 534.647 461.766C530.826 470.543 527.124 479.035 522.067 484.264L524.978 489.046C524.913 488.957 524.854 488.872 524.79 488.783C525.57 490.677 525.973 492.63 526.051 494.554L520.623 485.633C517.242 488.549 513.258 490.038 508.291 489.324C502.492 488.485 497.733 485.151 494.532 479.675C489.719 471.446 489.249 459.746 492.923 448.802C489.565 445.881 484.615 444.807 480.146 446.086C474.404 447.726 470.517 452.798 469.443 460.001C479.913 478.949 488.54 495.975 493.116 505.198C493.07 505.16 493.025 505.121 492.983 505.078C493.196 506.517 493.164 507.921 492.939 509.271C489.059 501.37 479.532 482.303 467.618 460.743C461.565 456.718 454.813 455.606 449.067 457.706C442.797 459.994 438.498 465.676 437.23 473.31L452.948 510.982C452.815 512.302 452.625 513.555 452.372 514.727L435.354 473.936C430.537 470.358 422.489 468.273 415.336 473.98C408.713 479.268 406.339 501.33 424.866 526.705C423.719 526.241 422.549 525.701 421.369 525.109C404.74 500.723 406.191 478.817 413.987 472.593C414.788 471.953 415.595 471.402 416.407 470.929C423.287 466.927 430.549 468.577 435.478 471.729C437.113 464.091 441.727 458.398 448.291 455.997C454.334 453.792 461.314 454.724 467.654 458.539C469.075 451.242 473.338 446.104 479.513 444.336C484.379 442.944 489.736 443.964 493.603 446.907C494.228 445.27 494.953 443.656 495.768 442.079C490.82 438.178 486.787 434.458 483.615 431.23C483.573 431.399 483.495 431.559 483.347 431.68C468.624 444.186 448.841 449.671 429.076 446.731C411.395 444.101 396.083 434.96 388.114 422.278C387.847 421.849 387.989 421.323 388.432 421.066C388.45 421.055 388.467 421.044 388.49 421.036C388.974 420.792 389.591 420.954 389.865 421.395C397.522 433.588 412.291 442.381 429.363 444.923C448.515 447.771 467.679 442.455 481.958 430.334C482.122 430.193 482.324 430.131 482.534 430.113C477.181 424.516 474.592 420.655 474.419 420.395C474.133 419.969 474.272 419.425 474.725 419.167C474.733 419.157 474.746 419.151 474.756 419.15C475.229 418.898 475.848 419.046 476.141 419.485C476.213 419.586 483.037 429.782 497.656 441.173C498.012 441.449 498.114 441.904 497.915 442.279C491.334 454.531 490.693 469.225 496.317 478.845C499.197 483.78 503.438 486.776 508.575 487.52L508.56 487.518Z" fill="black"/>
<path d="M360.941 399.893L360.941 399.894C361.484 401.218 362.405 402.335 363.684 403.247C364.963 404.158 366.316 404.663 367.74 404.739C369.162 404.82 370.537 404.496 371.858 403.78C373.188 403.066 374.363 401.98 375.388 400.542C376.421 399.093 377.07 397.62 377.315 396.123C377.566 394.636 377.425 393.227 376.885 391.908C376.348 390.588 375.429 389.473 374.151 388.562C372.872 387.65 371.516 387.144 370.087 387.063L370.087 387.063L370.086 387.062C368.669 386.986 367.292 387.313 365.962 388.03L365.962 388.03L365.96 388.031C364.632 388.755 363.455 389.852 362.422 391.301C361.397 392.739 360.751 394.201 360.504 395.687L360.504 395.689C360.264 397.174 360.407 398.579 360.941 399.893ZM368.042 401.461C367.233 401.503 366.405 401.243 365.548 400.632C364.691 400.02 364.174 399.323 363.95 398.545C363.717 397.734 363.716 396.883 363.96 395.982C364.208 395.064 364.635 394.175 365.248 393.315C365.861 392.455 366.564 391.758 367.355 391.218C368.133 390.688 368.942 390.405 369.79 390.356C370.602 390.309 371.431 390.566 372.287 391.177C373.143 391.787 373.657 392.486 373.878 393.269C374.108 394.086 374.104 394.944 373.857 395.852C373.605 396.776 373.175 397.668 372.562 398.528C371.949 399.388 371.249 400.082 370.462 400.616C369.689 401.14 368.884 401.417 368.042 401.461Z" fill="black" stroke="black" stroke-width="0.927848"/>
<path d="M345.425 388.855L345.426 388.857C345.917 390.13 346.767 391.19 347.957 392.038C348.859 392.681 349.727 393.077 350.557 393.173L350.557 393.173L350.561 393.174C351.336 393.257 352.038 393.213 352.657 393.021L352.66 393.02C352.808 392.973 352.949 392.927 353.082 392.882L352.223 394.087L351.954 394.464L352.332 394.734L354.332 396.159L354.71 396.428L354.979 396.051L367.783 378.086L368.052 377.708L367.675 377.439L365.604 375.963L365.227 375.694L364.957 376.072L360.901 381.762C360.9 381.673 360.897 381.582 360.894 381.487C360.886 380.845 360.705 380.174 360.376 379.48C360.028 378.725 359.37 378.028 358.458 377.378C357.258 376.522 355.969 376.059 354.601 376.005C353.236 375.952 351.902 376.3 350.608 377.033C349.31 377.768 348.144 378.875 347.105 380.333C346.058 381.802 345.386 383.273 345.111 384.746L345.11 384.747C344.84 386.208 344.94 387.581 345.425 388.855ZM358.362 384.525L358.361 384.527C358.133 385.422 357.681 386.355 356.99 387.325C356.291 388.306 355.541 389.053 354.745 389.581C353.958 390.1 353.173 390.362 352.386 390.389C351.621 390.409 350.862 390.166 350.101 389.623C349.306 389.057 348.815 388.393 348.59 387.637C348.366 386.852 348.365 386.006 348.602 385.087C348.852 384.156 349.301 383.231 349.956 382.312C350.604 381.403 351.317 380.693 352.092 380.173C352.867 379.657 353.652 379.395 354.451 379.367L354.452 379.367C355.237 379.338 356.03 379.591 356.84 380.168C357.616 380.721 358.101 381.362 358.334 382.086L358.335 382.089C358.576 382.822 358.592 383.63 358.362 384.525Z" fill="black" stroke="black" stroke-width="0.927848"/>
<path d="M333.028 352.945L333.306 352.574L332.936 352.295L330.8 350.69L330.429 350.411L330.151 350.782L316.894 368.415L316.615 368.786L316.986 369.065L319.121 370.67L319.492 370.949L319.771 370.578L333.028 352.945Z" fill="black" stroke="black" stroke-width="0.927848"/>
<path d="M304.443 338.949L304.713 338.572L304.336 338.301L301.842 336.512L303.882 333.668L304.153 333.291L303.776 333.021L301.71 331.539L301.333 331.269L301.063 331.646L299.023 334.49L297.369 333.304L296.992 333.033L296.722 333.41L295.466 335.161L295.196 335.538L295.573 335.808L297.226 336.994L291.469 345.02C290.866 345.86 290.539 346.729 290.531 347.619L290.531 347.622C290.53 348.478 290.737 349.271 291.154 349.993L291.155 349.995C291.566 350.701 292.091 351.287 292.731 351.745C293.13 352.032 293.499 352.251 293.835 352.392C294.13 352.522 294.387 352.62 294.597 352.676L294.987 352.782L295.145 352.409L296.056 350.252L296.232 349.835L295.82 349.649L295.428 349.472C295.297 349.405 295.126 349.299 294.913 349.147C294.651 348.958 294.433 348.742 294.258 348.497C294.131 348.308 294.066 348.067 294.088 347.747C294.118 347.455 294.292 347.038 294.691 346.482L300.046 339.017L302.54 340.806L302.917 341.076L303.187 340.699L304.443 338.949Z" fill="black" stroke="black" stroke-width="0.927848"/>
<path d="M282.522 340.028L282.524 340.028C283.246 340.105 283.883 340.005 284.448 339.742L284.452 339.741L284.452 339.741C285.037 339.474 285.501 339.096 285.853 338.605L286.764 337.336C286.726 337.323 286.688 337.311 286.649 337.297L286.643 337.295L286.643 337.295C286.273 337.16 285.867 336.983 285.425 336.766L285.419 336.763L285.42 336.763C284.995 336.548 284.584 336.333 284.185 336.118L284.179 336.115L284.179 336.115C283.795 335.901 283.484 335.73 283.244 335.602L283.244 335.602C282.681 335.3 282.125 335.066 281.577 334.898L281.574 334.897L281.574 334.897C281.067 334.738 280.609 334.711 280.19 334.797L282.522 340.028ZM282.522 340.028C281.83 339.957 281.102 339.663 280.334 339.112M282.522 340.028L280.334 339.112M280.334 339.112C279.567 338.562 279.087 337.963 278.849 337.325C278.641 336.738 278.725 336.164 279.162 335.554C279.489 335.097 279.835 334.87 280.189 334.797L280.334 339.112ZM276.038 339.199L276.039 339.202C276.54 340.086 277.247 340.85 278.147 341.496C278.964 342.082 279.768 342.474 280.556 342.647C281.31 342.812 282.01 342.848 282.648 342.737C282.743 342.721 282.837 342.703 282.928 342.683L282.363 343.471L282.092 343.848L282.469 344.119L284.535 345.6L284.912 345.871L285.182 345.494L291.536 336.636C292.328 335.532 292.809 334.481 292.928 333.488C293.042 332.534 292.938 331.657 292.594 330.873C292.275 330.134 291.847 329.488 291.311 328.94C290.813 328.42 290.334 327.991 289.873 327.661C289.162 327.15 288.371 326.732 287.502 326.403C286.617 326.062 285.682 325.914 284.702 325.954C283.699 325.995 282.701 326.326 281.711 326.924L281.289 327.18L281.57 327.585L283.028 329.692L283.269 330.04L283.637 329.832C284.135 329.551 284.781 329.384 285.599 329.356C286.333 329.331 287.162 329.615 288.097 330.286C288.99 330.926 289.423 331.577 289.521 332.222L289.521 332.222L289.521 332.225C289.626 332.89 289.437 333.61 288.867 334.403L288.817 334.473C288.652 334.704 288.515 334.74 288.384 334.726L288.384 334.726L288.379 334.725C288.147 334.702 287.774 334.569 287.233 334.268C286.684 333.954 285.962 333.556 285.069 333.075L285.068 333.074C284.373 332.701 283.659 332.36 282.928 332.051C282.183 331.731 281.435 331.521 280.685 331.425C279.902 331.325 279.144 331.424 278.418 331.721C277.666 332.025 277.003 332.61 276.417 333.427C275.746 334.362 275.375 335.342 275.336 336.36L275.336 336.362C275.302 337.355 275.539 338.304 276.038 339.199Z" fill="black" stroke="black" stroke-width="0.927848"/>
<path d="M261.917 329.378L262.294 329.649L262.565 329.272L268.366 321.184C268.892 320.451 269.463 319.954 270.073 319.664C270.699 319.374 271.329 319.274 271.974 319.357C272.632 319.445 273.27 319.705 273.892 320.151C274.785 320.792 275.246 321.527 275.352 322.356L275.352 322.356L275.353 322.36C275.468 323.189 275.21 324.096 274.49 325.1L268.463 333.503L268.192 333.88L268.569 334.15L270.635 335.632L271.012 335.902L271.283 335.525L277.41 326.982C278.266 325.789 278.796 324.632 278.961 323.514C279.135 322.403 278.991 321.365 278.515 320.417C278.051 319.477 277.326 318.662 276.359 317.968C275.257 317.178 274.177 316.73 273.126 316.683C272.551 316.656 271.995 316.719 271.458 316.873L275.423 311.346L275.694 310.969L275.317 310.699L273.251 309.217L272.874 308.946L272.603 309.323L259.745 327.249L259.475 327.626L259.852 327.897L261.917 329.378Z" fill="black" stroke="black" stroke-width="0.927848"/>
<path d="M242.705 315.191L242.595 315.517L242.874 315.717L244.905 317.174L245.19 317.378L245.464 317.16L254.907 309.661L250.831 321.01L250.713 321.34L250.997 321.544L253.028 323L253.307 323.201L253.58 322.992L267.32 312.486L267.818 312.105L267.309 311.74L265.138 310.183L264.853 309.979L264.579 310.197L255.361 317.538L259.421 306.501L259.543 306.17L259.256 305.964L257.05 304.382L256.764 304.177L256.49 304.397L247.276 311.796L251.299 300.672L251.419 300.342L251.133 300.138L248.963 298.581L248.454 298.215L248.253 298.809L242.705 315.191Z" fill="black" stroke="black" stroke-width="0.927848"/>
<path d="M216.446 287.232L216.932 287.263L216.94 286.777C216.961 285.447 216.624 284.239 215.923 283.167C215.208 282.066 214.014 281.249 212.411 280.683C211.263 280.277 210.147 280.11 209.07 280.196L209.07 280.196L209.069 280.196C208.003 280.284 207.056 280.598 206.242 281.148L206.242 281.148L206.24 281.149C205.421 281.71 204.84 282.484 204.498 283.452C204.083 284.626 204.093 285.762 204.554 286.833L204.554 286.833L204.556 286.837C205.026 287.9 205.972 288.857 207.321 289.726L207.322 289.726L209.707 291.254L209.707 291.255C210.391 291.691 210.798 292.118 210.993 292.518L210.995 292.521C211.187 292.905 211.211 293.295 211.06 293.721C210.884 294.22 210.488 294.591 209.761 294.806C209.06 295.011 208.194 294.958 207.135 294.584C206.214 294.259 205.582 293.814 205.192 293.277C204.814 292.75 204.644 292.092 204.717 291.266L204.757 290.807L204.298 290.764L201.822 290.529L201.378 290.486L201.319 290.929C201.113 292.464 201.44 293.831 202.319 294.996C203.186 296.145 204.466 297.002 206.12 297.586C207.381 298.031 208.581 298.218 209.716 298.128C210.842 298.04 211.83 297.713 212.664 297.136C213.51 296.556 214.109 295.767 214.457 294.784C214.877 293.594 214.855 292.455 214.357 291.399C213.869 290.353 212.937 289.409 211.622 288.552C211.622 288.552 211.621 288.552 211.621 288.552L209.509 287.166C209.509 287.166 209.509 287.166 209.508 287.166C208.691 286.625 208.18 286.142 207.92 285.727C207.69 285.358 207.645 284.96 207.813 284.486C207.991 283.981 208.366 283.635 209.026 283.457L209.027 283.457C209.708 283.272 210.484 283.316 211.37 283.63C212.025 283.861 212.487 284.143 212.789 284.456C213.115 284.793 213.324 285.141 213.435 285.498L213.435 285.498L213.438 285.507C213.569 285.9 213.636 286.273 213.644 286.628L213.653 287.054L214.078 287.081L216.446 287.232Z" fill="black" stroke="black" stroke-width="0.927848"/>
<path d="M193.921 292.419L193.767 292.856L194.204 293.011L196.601 293.858L197.039 294.012L197.193 293.575L202.704 277.974L202.859 277.537L202.421 277.382L200.025 276.535L199.587 276.381L199.433 276.818L193.921 292.419ZM200.553 274.107L200.553 274.108L200.555 274.112C200.836 274.655 201.275 275.036 201.853 275.241C202.43 275.445 203.009 275.423 203.564 275.173C204.125 274.925 204.523 274.508 204.725 273.935C204.927 273.363 204.88 272.789 204.599 272.243C204.324 271.7 203.887 271.32 203.31 271.116C202.732 270.911 202.151 270.932 201.591 271.179L201.591 271.179L201.587 271.181C201.031 271.432 200.639 271.851 200.438 272.421C200.236 272.991 200.279 273.563 200.553 274.107Z" fill="black" stroke="black" stroke-width="0.927848"/>
<path d="M172.138 271.505L172.625 271.488L172.584 271.003C172.474 269.678 172.019 268.509 171.216 267.512C170.395 266.486 169.127 265.792 167.476 265.386C166.293 265.096 165.166 265.041 164.103 265.232L164.103 265.232L164.102 265.233C163.049 265.425 162.138 265.831 161.383 266.459L161.383 266.459L161.381 266.461C160.621 267.1 160.119 267.927 159.875 268.924C159.578 270.134 159.7 271.263 160.264 272.283L160.264 272.283L160.267 272.287C160.839 273.298 161.875 274.157 163.304 274.888L163.305 274.889L165.829 276.174L165.83 276.174C166.553 276.541 167 276.925 167.234 277.304L167.236 277.307C167.465 277.67 167.528 278.055 167.42 278.495C167.294 279.008 166.936 279.417 166.235 279.702C165.557 279.976 164.69 280.009 163.599 279.741C162.65 279.508 161.978 279.129 161.536 278.633C161.108 278.146 160.874 277.507 160.864 276.678L160.859 276.218L160.399 276.22L157.911 276.23L157.465 276.232L157.45 276.678C157.397 278.226 157.858 279.554 158.848 280.627C159.824 281.685 161.182 282.411 162.886 282.829C164.184 283.147 165.397 283.214 166.517 283.013C167.629 282.813 168.58 282.391 169.353 281.734C170.137 281.074 170.656 280.23 170.904 279.216C171.205 277.991 171.071 276.86 170.471 275.858C169.882 274.865 168.861 274.018 167.468 273.295C167.468 273.295 167.467 273.295 167.467 273.295L165.228 272.125C165.228 272.125 165.228 272.125 165.228 272.125C164.36 271.667 163.804 271.237 163.505 270.849C163.239 270.505 163.156 270.113 163.276 269.625C163.403 269.105 163.742 268.724 164.381 268.482L164.382 268.481C165.042 268.23 165.818 268.198 166.731 268.422C167.406 268.587 167.893 268.822 168.225 269.104C168.582 269.407 168.825 269.733 168.97 270.076L168.97 270.077L168.974 270.086C169.144 270.464 169.247 270.828 169.29 271.181L169.341 271.604L169.767 271.589L172.138 271.505Z" fill="black" stroke="black" stroke-width="0.927848"/>
<path d="M150.24 278.892L150.129 279.343L150.58 279.453L153.049 280.059L153.499 280.17L153.61 279.719L157.552 263.65L157.663 263.199L157.212 263.089L154.744 262.483L154.293 262.373L154.182 262.823L150.24 278.892ZM155.03 260.015L155.03 260.015L155.032 260.019C155.365 260.532 155.84 260.868 156.435 261.014C157.03 261.16 157.604 261.082 158.131 260.778C158.665 260.475 159.02 260.021 159.164 259.432C159.309 258.842 159.205 258.275 158.871 257.76C158.545 257.246 158.072 256.911 157.477 256.765C156.882 256.619 156.306 256.697 155.773 256.998L155.773 256.998L155.769 257C155.241 257.306 154.892 257.761 154.748 258.348C154.604 258.935 154.703 259.5 155.03 260.015Z" fill="black" stroke="black" stroke-width="0.927848"/>
<path d="M135.64 275.788L136.091 275.898L136.202 275.448L138.573 265.781C138.788 264.905 139.134 264.231 139.592 263.735C140.064 263.232 140.612 262.905 141.241 262.742C141.884 262.579 142.574 262.582 143.317 262.764C144.385 263.026 145.086 263.537 145.493 264.266L145.493 264.266L145.496 264.271C145.911 264.997 146.01 265.935 145.715 267.134L143.251 277.177L143.141 277.628L143.591 277.739L146.06 278.344L146.511 278.455L146.621 278.004L149.127 267.794C149.477 266.367 149.537 265.096 149.274 263.997C149.022 262.902 148.501 261.992 147.707 261.289C146.926 260.589 145.949 260.104 144.793 259.82C143.477 259.497 142.308 259.483 141.314 259.831C140.771 260.02 140.278 260.286 139.838 260.629L141.459 254.022L141.569 253.572L141.119 253.461L138.65 252.856L138.199 252.745L138.089 253.196L132.832 274.621L132.721 275.071L133.172 275.182L135.64 275.788Z" fill="black" stroke="black" stroke-width="0.927848"/>
<path d="M117.788 250.654L117.678 251.105L118.128 251.215L124.415 252.758L119.833 271.431L119.723 271.882L120.173 271.992L122.768 272.629L123.218 272.739L123.329 272.289L127.911 253.616L134.197 255.158L134.648 255.269L134.758 254.818L135.323 252.517L135.434 252.066L134.983 251.956L118.914 248.013L118.464 247.902L118.353 248.353L117.788 250.654Z" fill="black" stroke="black" stroke-width="0.927848"/>
</svg>
