<svg width="1920" height="323" viewBox="0 0 1920 323" fill="none" xmlns="http://www.w3.org/2000/svg">
<mask id="mask0_28_367" style="mask-type:alpha" maskUnits="userSpaceOnUse" x="0" y="0" width="1920" height="323">
<rect y="0.287598" width="1920" height="322.712" fill="#D9D9D9"/>
</mask>
<g mask="url(#mask0_28_367)">
<path fill-rule="evenodd" clip-rule="evenodd" d="M1540.5 323C1542.45 323 1544.25 324.021 1545.29 325.674C1585.29 389.39 1661.33 432.415 1748.57 432.415C1877.37 432.415 1981.78 338.619 1981.78 222.916C1981.78 107.213 1877.37 13.417 1748.57 13.417C1682.95 13.417 1623.66 37.7612 1581.29 76.9439C1550.09 105.788 1471.12 116.331 1434.17 95.366C1398.18 74.9461 1355.53 63.1286 1309.82 63.1286C1272.02 63.1286 1236.33 71.204 1204.76 85.5385C1181.96 95.8899 1154.03 91.2991 1135.39 74.59C1093.2 36.7885 1034.98 13.417 970.692 13.417C910.294 13.417 855.259 34.0424 813.838 67.8803C792.616 85.2174 760.809 87.6926 737.327 73.5676C700.264 51.2744 655.691 38.2728 607.738 38.2728C555.046 38.2728 506.435 53.9714 467.385 80.4461C433.569 103.372 364.048 98.6864 333.144 71.9638C291.218 35.709 234.223 13.417 171.432 13.417C42.634 13.417 -61.7779 107.213 -61.7779 222.916C-61.7779 338.619 42.634 432.415 171.432 432.415C257.45 432.415 332.59 390.581 373.017 328.326C375.143 325.051 378.744 323 382.649 323V323C387.117 323 391.129 325.676 393.042 329.715C428.549 404.696 511.309 457.271 607.738 457.271C668.136 457.271 723.171 436.646 764.591 402.808C785.814 385.47 817.62 382.995 841.103 397.12C878.166 419.413 922.739 432.415 970.692 432.415C1008.48 432.415 1044.18 424.34 1075.75 410.005C1098.55 399.654 1126.47 404.245 1145.12 420.954C1187.31 458.755 1245.52 482.127 1309.82 482.127C1417.64 482.127 1508.38 416.389 1535.07 327.094C1535.79 324.686 1537.98 323 1540.5 323V323Z" fill="#F254B1"/>
</g>
</svg>
