<svg width="565" height="1089" viewBox="0 0 565 1089" fill="none" xmlns="http://www.w3.org/2000/svg">
<mask id="mask0_46_3" style="mask-type:alpha" maskUnits="userSpaceOnUse" x="0" y="0" width="565" height="1089">
<rect x="0.445557" y="0.703613" width="564" height="1087.5" fill="#D9D9D9"/>
</mask>
<g mask="url(#mask0_46_3)">
<path fill-rule="evenodd" clip-rule="evenodd" d="M-81.3113 132.313C-81.298 132.313 -81.2873 132.302 -81.2876 132.289C-81.3192 130.994 -81.3352 129.695 -81.3352 128.39C-81.3352 64.4788 -43.0292 12.6685 4.22369 12.6685C24.1781 12.6685 42.537 21.9077 57.0895 37.3958C69.6024 50.7132 107.481 52.7094 121.946 41.5435C134.432 31.9052 148.887 26.398 164.293 26.398C179.495 26.398 193.771 31.7602 206.143 41.1625C217.01 49.4207 234.602 48.2585 243.834 38.2054C258.503 22.2302 277.152 12.6685 297.452 12.6685C319.641 12.6685 339.857 24.0931 355.061 42.8307C363.006 52.6228 378.38 54.867 389.406 48.7473C399.416 43.1911 410.377 40.1276 421.867 40.1276C433.962 40.1276 445.47 43.5218 455.9 49.6443C472.06 59.1301 515.006 54.5731 527.262 40.3994C542.212 23.1096 561.622 12.6685 582.834 12.6685C630.087 12.6685 668.393 64.4788 668.393 128.39C668.393 156.78 660.834 182.783 648.29 202.917C646.348 206.034 645.191 209.595 645.191 213.267V1307.55C645.191 1317.5 637.131 1325.56 627.189 1325.56H-63.3333C-73.2754 1325.56 -81.3351 1317.5 -81.3351 1307.55V132.337C-81.3351 132.324 -81.3244 132.313 -81.3113 132.313V132.313Z" fill="#F254B1"/>
</g>
</svg>
