<svg width="119" height="38" viewBox="0 0 119 38" fill="none" xmlns="http://www.w3.org/2000/svg">
<path d="M73.3877 31.4967C71.7595 31.4967 70.3572 31.1488 69.1809 30.4531C68.0118 29.7502 67.108 28.7639 66.4696 27.4944C65.8384 26.2176 65.5228 24.7221 65.5228 23.0078C65.5228 21.3151 65.8384 19.8232 66.4696 18.5321C67.108 17.241 67.9974 16.2333 69.1379 15.5088C70.2855 14.7844 71.6268 14.4221 73.1617 14.4221C74.0942 14.4221 74.998 14.5764 75.873 14.8848C76.7481 15.1932 77.5335 15.6774 78.2293 16.3373C78.925 16.9971 79.4737 17.8543 79.8754 18.9087C80.2771 19.9559 80.4779 21.229 80.4779 22.7281V23.8686H67.3411V21.4586H77.3255C77.3255 20.6122 77.1534 19.8626 76.8091 19.2099C76.4648 18.55 75.9806 18.03 75.3566 17.6499C74.7397 17.2697 74.0153 17.0796 73.1833 17.0796C72.2795 17.0796 71.4905 17.302 70.8163 17.7467C70.1492 18.1842 69.6328 18.758 69.267 19.4681C68.9084 20.1711 68.729 20.9349 68.729 21.7598V23.6426C68.729 24.7472 68.9227 25.6868 69.31 26.4615C69.7045 27.2361 70.2532 27.8279 70.9562 28.2367C71.6591 28.6384 72.4803 28.8392 73.42 28.8392C74.0296 28.8392 74.5855 28.7532 75.0876 28.581C75.5897 28.4017 76.0236 28.1363 76.3895 27.7849C76.7553 27.4334 77.035 26.9994 77.2287 26.483L80.2735 27.0317C80.0296 27.9283 79.5921 28.7137 78.9609 29.388C78.3368 30.055 77.5514 30.575 76.6046 30.948C75.665 31.3138 74.5927 31.4967 73.3877 31.4967Z" fill="white"/>
<path d="M58.1138 31.1632V14.6373H61.3307V31.1632H58.1138ZM59.7384 12.0874C59.1789 12.0874 58.6984 11.901 58.2967 11.528C57.9022 11.1478 57.7049 10.6959 57.7049 10.1723C57.7049 9.64156 57.9022 9.18968 58.2967 8.8167C58.6984 8.43655 59.1789 8.24648 59.7384 8.24648C60.2979 8.24648 60.7748 8.43655 61.1693 8.8167C61.571 9.18968 61.7718 9.64156 61.7718 10.1723C61.7718 10.6959 61.571 11.1478 61.1693 11.528C60.7748 11.901 60.2979 12.0874 59.7384 12.0874Z" fill="white"/>
<path d="M42.6167 21.351V31.1632H39.3998V14.6373H42.4876V17.3271H42.692C43.0722 16.452 43.6675 15.7491 44.478 15.2183C45.2957 14.6875 46.325 14.4221 47.5659 14.4221C48.692 14.4221 49.6782 14.6588 50.5246 15.1322C51.371 15.5985 52.0273 16.2942 52.4935 17.2195C52.9597 18.1448 53.1928 19.2888 53.1928 20.6516V31.1632H49.9759V21.0389C49.9759 19.8411 49.6639 18.9051 49.0398 18.2308C48.4158 17.5494 47.5587 17.2087 46.4684 17.2087C45.7225 17.2087 45.059 17.3701 44.478 17.6929C43.9042 18.0157 43.4487 18.4891 43.1116 19.1131C42.7817 19.7299 42.6167 20.4759 42.6167 21.351Z" fill="white"/>
<path d="M28.1339 31.4967C26.5057 31.4967 25.1035 31.1488 23.9271 30.4531C22.758 29.7502 21.8542 28.7639 21.2159 27.4944C20.5847 26.2176 20.2691 24.7221 20.2691 23.0078C20.2691 21.3151 20.5847 19.8232 21.2159 18.5321C21.8542 17.241 22.7436 16.2333 23.8841 15.5088C25.0317 14.7844 26.373 14.4221 27.908 14.4221C28.8404 14.4221 29.7442 14.5764 30.6192 14.8848C31.4943 15.1932 32.2797 15.6774 32.9755 16.3373C33.6712 16.9971 34.2199 17.8543 34.6216 18.9087C35.0233 19.9559 35.2241 21.229 35.2241 22.7281V23.8686H22.0873V21.4586H32.0717C32.0717 20.6122 31.8996 19.8626 31.5553 19.2099C31.211 18.55 30.7268 18.03 30.1028 17.6499C29.486 17.2697 28.7615 17.0796 27.9295 17.0796C27.0257 17.0796 26.2367 17.302 25.5625 17.7467C24.8954 18.1842 24.379 18.758 24.0132 19.4681C23.6546 20.1711 23.4753 20.9349 23.4753 21.7598V23.6426C23.4753 24.7472 23.6689 25.6868 24.0562 26.4615C24.4507 27.2361 24.9994 27.8279 25.7024 28.2367C26.4053 28.6384 27.2266 28.8392 28.1662 28.8392C28.7759 28.8392 29.3318 28.7532 29.8338 28.581C30.3359 28.4017 30.7699 28.1363 31.1357 27.7849C31.5015 27.4334 31.7812 26.9994 31.9749 26.483L35.0197 27.0317C34.7758 27.9283 34.3383 28.7137 33.7071 29.388C33.0831 30.055 32.2976 30.575 31.3509 30.948C30.4112 31.3138 29.3389 31.4967 28.1339 31.4967Z" fill="white"/>
<path d="M8.63599 37.7047C7.32339 37.7047 6.19369 37.5325 5.24689 37.1882C4.30727 36.844 3.5398 36.3885 2.94447 35.8218C2.34914 35.2552 1.90442 34.6348 1.61034 33.9605L4.37541 32.8201C4.56907 33.1357 4.82729 33.4692 5.15006 33.8207C5.48001 34.1793 5.92472 34.4841 6.48419 34.7352C7.05083 34.9862 7.77886 35.1117 8.66827 35.1117C9.88763 35.1117 10.8954 34.8141 11.6915 34.2188C12.4877 33.6306 12.8858 32.691 12.8858 31.3999V28.1507H12.6814C12.4877 28.5021 12.208 28.893 11.8422 29.3234C11.4836 29.7538 10.9886 30.1267 10.3574 30.4423C9.72624 30.7579 8.90497 30.9157 7.89362 30.9157C6.58819 30.9157 5.41187 30.6109 4.36466 30.0012C3.32462 29.3844 2.49977 28.477 1.89009 27.2792C1.28758 26.0742 0.986328 24.593 0.986328 22.8357C0.986328 21.0784 1.28399 19.5721 1.87932 18.3169C2.48182 17.0617 3.30669 16.1006 4.3539 15.4335C5.40111 14.7593 6.58819 14.4221 7.91513 14.4221C8.94083 14.4221 9.76928 14.5943 10.4005 14.9386C11.0317 15.2757 11.523 15.6702 11.8745 16.1221C12.2331 16.574 12.5092 16.972 12.7029 17.3163H12.9396V14.6373H16.092V31.529C16.092 32.9492 15.762 34.1147 15.1022 35.0257C14.4423 35.9366 13.5493 36.6108 12.4232 37.0484C11.3042 37.4859 10.0418 37.7047 8.63599 37.7047ZM8.60371 28.2475C9.52898 28.2475 10.3108 28.0323 10.9492 27.602C11.5947 27.1644 12.0825 26.5404 12.4124 25.7299C12.7495 24.9122 12.9181 23.9331 12.9181 22.7927C12.9181 21.6809 12.7531 20.7018 12.4232 19.8555C12.0932 19.0091 11.6091 18.3492 10.9707 17.8758C10.3323 17.3952 9.54333 17.1549 8.60371 17.1549C7.6354 17.1549 6.82847 17.406 6.18293 17.9081C5.53739 18.403 5.04965 19.0772 4.71971 19.9308C4.39694 20.7843 4.23555 21.7383 4.23555 22.7927C4.23555 23.8757 4.40052 24.8261 4.73046 25.6438C5.06041 26.4615 5.54815 27.0999 6.19369 27.5589C6.8464 28.018 7.64974 28.2475 8.60371 28.2475Z" fill="white"/>
<path d="M85.5179 9.12648C85.5179 10.8949 85.9009 12.4581 86.6669 13.8161C87.4635 15.1424 88.5359 16.1845 89.8841 16.9425C91.2323 17.7004 92.749 18.0793 94.4342 18.0793L110.474 18.0793C111.302 18.0793 112.052 18.2846 112.726 18.6951C113.401 19.1057 113.937 19.6583 114.335 20.3531C114.733 21.0478 114.933 21.8057 114.933 22.6268C114.933 23.4479 114.733 24.2058 114.335 24.9005C113.937 25.5637 113.401 26.1006 112.726 26.5111C112.052 26.8901 111.302 27.0795 110.474 27.0795L88.3431 27.0795C87.0874 27.0795 86.0694 28.0975 86.0694 29.3533C86.0694 30.609 87.0874 31.627 88.3431 31.627L109.877 31.627C111.562 31.627 113.079 31.2481 114.427 30.4902C115.775 29.7322 116.832 28.6743 117.598 27.3164C118.395 25.9585 118.793 24.3953 118.793 22.6268C118.793 20.8268 118.395 19.2478 117.598 17.8899C116.832 16.5319 115.775 15.474 114.427 14.7161C113.079 13.9582 111.562 13.5792 109.877 13.5792L93.8367 13.5792C93.0094 13.5792 92.2587 13.374 91.5846 12.9634C90.9106 12.5529 90.3743 12.016 89.976 11.3529C89.5777 10.6581 89.3785 9.91597 89.3785 9.12648C89.3785 8.33699 89.5777 7.61066 89.976 6.94749C90.3743 6.28431 90.9106 5.76325 91.5846 5.38429C92.2587 4.97376 93.0094 4.76849 93.8367 4.76849L115.968 4.76849C117.224 4.76849 118.242 3.7505 118.242 2.49475C118.242 1.239 117.224 0.221015 115.968 0.221015L94.4342 0.221014C92.749 0.221014 91.2323 0.59997 89.8841 1.35788C88.5359 2.11579 87.4635 3.15792 86.6669 4.48427C85.9009 5.81062 85.5179 7.35802 85.5179 9.12648Z" fill="white"/>
</svg>
