<svg width="140" height="140" viewBox="0 0 140 140" fill="none" xmlns="http://www.w3.org/2000/svg">
<path d="M26.657 41.031L69.809 98.5772M26.657 98.5772L69.809 41.031M1.48242 69.8041C1.48242 37.5919 1.48242 21.4896 11.4885 11.4836C21.4945 1.47754 37.6044 1.47754 69.809 1.47754C102.014 1.47754 118.123 1.47754 128.129 11.4836C138.136 21.4896 138.136 37.5995 138.136 69.8041C138.136 102.009 138.136 118.119 128.129 128.125C118.123 138.131 102.014 138.131 69.809 138.131C37.6044 138.131 21.4945 138.131 11.4885 128.125C1.48242 118.119 1.48242 102.009 1.48242 69.8041Z" stroke="white" stroke-width="2.16832" stroke-linecap="round" stroke-linejoin="round"/>
<path d="M112.962 62.6134V91.3864C112.962 99.3123 109.242 98.5683 102.182 98.5683C97.4137 98.5683 92.841 96.6743 89.4696 93.3028C86.0982 89.9314 84.2041 85.3588 84.2041 80.5908C84.2041 75.8229 86.0982 71.2503 89.4696 67.8789C92.841 64.5074 97.4137 62.6134 102.182 62.6134H112.962ZM112.962 62.6134V41.0298" stroke="white" stroke-width="2.16832" stroke-linecap="round" stroke-linejoin="round"/>
</svg>
