<svg width="136" height="135" viewBox="0 0 136 135" fill="none" xmlns="http://www.w3.org/2000/svg">
<path d="M2.13672 67.4526C2.13672 36.354 2.13672 20.7978 11.7969 11.1377C21.457 1.47754 37.0063 1.47754 68.1118 1.47754C99.2104 1.47754 114.767 1.47754 124.427 11.1377C134.087 20.7978 134.087 36.3471 134.087 67.4526C134.087 98.5512 134.087 114.107 124.427 123.768C114.767 133.428 99.2173 133.428 68.1118 133.428C37.0132 133.428 21.457 133.428 11.7969 123.768C2.13672 114.107 2.13672 98.5581 2.13672 67.4526Z" stroke="white" stroke-width="2.61694" stroke-linecap="round" stroke-linejoin="round"/>
<path d="M68.106 95.2308L62.0918 75.7855M62.0918 75.7855L57.0638 59.5279C52.9664 46.2912 50.9177 39.6729 47.2717 39.6729C43.6257 39.6729 41.577 46.2912 37.4796 59.5279L32.4516 75.7855M62.0918 75.7855H32.4516M26.4375 95.2308L32.4516 75.7855M81.9954 73.4938V81.3413C81.9941 84.4041 83.0052 87.3814 84.8713 89.8101C86.7374 92.2387 89.3539 93.9824 92.3137 94.7699C95.2735 95.5574 98.4107 95.3445 101.237 94.1643C104.063 92.9841 106.42 90.9029 107.941 88.2444M81.9954 73.4938V67.4518C81.9954 63.7681 83.4588 60.2353 86.0636 57.6305C88.6684 55.0257 92.2012 53.5623 95.8849 53.5623C99.5687 53.5623 103.102 55.0257 105.706 57.6305C108.311 60.2353 109.774 63.7681 109.774 67.4518V73.4938L81.9954 73.4938Z" stroke="white" stroke-width="2.61694" stroke-linecap="round" stroke-linejoin="round"/>
</svg>
