<svg width="133" height="133" viewBox="0 0 133 133" fill="none" xmlns="http://www.w3.org/2000/svg">
<path d="M1.73584 66.6291C1.73584 36.0802 1.73584 20.8093 11.2252 11.32C20.7146 1.83057 35.9927 1.83057 66.5344 1.83057C97.0761 1.83057 112.354 1.83057 121.844 11.32C131.333 20.8093 131.333 36.0874 131.333 66.6291C131.333 97.1708 131.333 112.449 121.844 121.938C112.354 131.428 97.0761 131.428 66.5344 131.428C35.9927 131.428 20.7146 131.428 11.2252 121.938C1.73584 112.449 1.73584 97.1708 1.73584 66.6291Z" stroke="white" stroke-width="2.16832" stroke-linecap="round" stroke-linejoin="round"/>
<path d="M107.558 71.4908C107.433 71.4908 107.309 71.5739 107.225 71.7817C106.39 74.1968 105.222 75.6559 104.266 75.6559C103.725 75.6559 103.517 75.0324 103.517 74.1179C103.517 71.7402 104.931 66.698 105.637 64.366C105.721 64.075 105.762 63.8256 105.762 63.6178C105.762 62.9485 105.388 62.6118 104.474 62.6118C103.518 62.6118 102.433 62.9859 101.431 64.7817C101.098 63.1979 100.017 62.5287 98.5127 62.5287C96.8084 62.5287 95.1374 63.6552 93.7656 65.4468C92.3897 67.2383 90.7644 67.8245 89.5548 67.5293C90.4277 65.4093 90.7603 63.7799 90.7603 62.6118C90.7603 60.7413 89.8458 59.6148 88.3493 59.6148C86.0963 59.6148 84.8036 61.7805 84.8036 64.0293C84.8036 65.7793 85.5933 67.5709 87.3475 68.448C85.8885 71.7402 83.7644 74.7414 82.9288 74.7414C81.8896 74.7414 81.5571 69.616 81.6402 65.9456C81.6818 63.8672 81.8481 63.7425 81.8481 63.1148C81.8481 62.7407 81.5987 62.4913 80.6384 62.4913C78.427 62.4913 77.7203 64.3618 77.6372 66.5317C77.5956 67.363 77.4709 68.1528 77.2631 68.9468C76.3486 72.239 74.4282 74.7829 73.177 74.7829C72.595 74.7829 72.4287 74.201 72.4287 73.4486C72.4287 71.0709 73.7589 68.0739 73.7589 65.5299C73.7589 63.6593 72.9276 62.4871 71.3895 62.4871C69.5522 62.4871 67.1787 64.657 64.8883 68.6974C65.6365 65.613 65.9275 62.616 63.7202 62.616C63.2214 62.616 62.7628 62.7407 62.3443 62.9901C62.2027 63.0557 62.0837 63.1617 62.0023 63.2949C61.9209 63.4281 61.8808 63.5824 61.8871 63.7383C62.0949 67.0305 59.2184 75.4896 56.5123 75.4896C56.0135 75.4896 55.7641 74.9492 55.7641 74.0763C55.7641 71.6986 57.1774 66.6564 57.8841 64.3203C57.9618 64.064 58.0037 63.7982 58.0088 63.5305C58.0088 62.907 57.6347 62.5744 56.7202 62.5744C55.7641 62.5744 54.6792 62.9485 53.6774 64.7359C53.3033 63.1564 52.2641 62.4913 50.7593 62.4913C48.3026 62.4913 45.5924 65.0685 44.3828 68.448C42.7616 72.9498 39.5525 77.3228 35.1754 77.3228C31.2181 77.3228 29.1314 74.0306 29.1314 68.8221C29.1314 61.2816 34.6766 55.1545 38.7586 55.1545C40.7165 55.1545 41.6351 56.4015 41.6351 58.322C41.6351 60.654 40.3465 61.6973 40.3465 62.6118C40.3465 62.8612 40.5543 63.1522 41.0116 63.1522C42.799 63.1522 44.8857 61.0738 44.8857 58.1973C44.8857 55.3208 42.6327 53.2798 38.5508 53.2798C31.7585 53.2798 24.9663 60.072 24.9663 68.8262C24.9663 75.7806 28.3832 79.9499 34.3025 79.9499C38.3429 79.9499 41.8845 76.8239 43.7592 73.1576C43.9671 76.2004 45.343 77.78 47.4671 77.78C49.3418 77.78 50.8424 76.6577 52.0105 74.6998C52.4677 76.7366 53.6317 77.7384 55.178 77.7384C56.9238 77.7384 58.4286 76.6161 59.8004 74.5751C59.8004 76.1963 60.1329 77.7384 61.5545 77.7384C62.2196 77.7384 63.0094 77.5722 63.1341 76.9902C64.6347 70.8631 68.3052 65.8209 69.4275 65.8209C69.7601 65.8209 69.8432 66.1534 69.8432 66.5275C69.8432 68.1986 68.6793 71.6155 68.6793 73.7812C68.6793 76.1589 69.6769 77.6969 71.7636 77.6969C74.054 77.6969 76.386 74.9077 77.9282 70.7799C78.427 74.6167 79.4704 77.6969 81.0957 77.6969C83.0951 77.6969 86.7198 73.4486 88.8897 68.9468C89.7211 69.0715 91.0138 69.0299 92.265 68.157C91.7246 69.4872 91.4337 70.9462 91.4337 72.3637C91.4337 76.533 93.4289 77.6969 95.1374 77.6969C97.0121 77.6969 98.5127 76.5745 99.6808 74.6167C100.055 76.3625 101.053 77.6553 102.848 77.6553C105.642 77.6553 108.098 74.7829 108.098 72.4053C108.14 71.9064 107.849 71.4908 107.558 71.4908ZM49.2171 75.448C48.0948 75.448 47.6375 74.3257 47.6375 72.6131C47.6375 69.6576 49.6744 64.6985 51.8027 64.6985C52.7172 64.6985 53.0913 65.7793 53.0913 67.1552C53.0913 70.1564 51.1791 75.448 49.2171 75.448ZM88.0957 66.6148C87.4307 65.825 87.1812 64.6985 87.1812 63.7383C87.1812 62.5328 87.6385 61.531 88.1373 61.531C88.6361 61.531 88.844 62.0299 88.844 62.7781C88.8024 63.9462 88.3867 65.7377 88.0957 66.6148ZM96.8874 75.448C95.7651 75.448 95.3078 74.1179 95.3078 72.6131C95.3078 69.7407 97.3446 64.6985 99.4729 64.6985C100.387 64.6985 100.72 65.7793 100.72 67.1552C100.762 70.1564 98.891 75.448 96.8874 75.448Z" fill="white"/>
</svg>
