<svg width="133" height="133" viewBox="0 0 133 133" fill="none" xmlns="http://www.w3.org/2000/svg">
<path d="M1.76563 66.6291C1.76563 36.0802 1.76562 20.8093 11.255 11.32C20.7444 1.83057 36.0225 1.83057 66.5642 1.83057C97.1059 1.83057 112.384 1.83057 121.873 11.32C131.363 20.8093 131.363 36.0874 131.363 66.6291C131.363 97.1708 131.363 112.449 121.873 121.938C112.384 131.428 97.1059 131.428 66.5642 131.428C36.0225 131.428 20.7444 131.428 11.255 121.938C1.76562 112.449 1.76563 97.1708 1.76563 66.6291Z" stroke="white" stroke-width="2.16832" stroke-linecap="round" stroke-linejoin="round"/>
<path d="M102.732 37.4949L90.9488 96.8662C90.7202 98.0173 90.1709 99.0804 89.3641 99.9327C88.5573 100.785 87.526 101.392 86.3891 101.683L69.5071 106.019C67.4766 106.54 65.3473 106.54 63.3169 106.019L46.4307 101.683C45.2959 101.391 44.2667 100.784 43.4615 99.9326C42.6563 99.0811 42.1079 98.0197 41.8793 96.8703L30.0922 37.4949C29.9131 36.5927 29.9363 35.6619 30.1601 34.7696C30.3838 33.8774 30.8026 33.0458 31.3862 32.3348C31.9699 31.6238 32.7039 31.051 33.5354 30.6577C34.367 30.2644 35.2754 30.0602 36.1953 30.0601H96.6287C97.5485 30.0602 98.4569 30.2644 99.2885 30.6577C100.12 31.051 100.854 31.6238 101.438 32.3348C102.021 33.0458 102.44 33.8774 102.664 34.7696C102.888 35.6619 102.911 36.5927 102.732 37.4949Z" stroke="white" stroke-width="2" stroke-linecap="round" stroke-linejoin="round"/>
<path d="M82.9991 66.9483L79.3024 85.4442C79.1624 86.1436 78.8446 86.7951 78.3794 87.3358C77.9143 87.8765 77.3177 88.2881 76.6471 88.531L67.8264 91.7257C66.9136 92.0563 65.9138 92.0563 65.001 91.7257L56.0974 88.502C55.4407 88.2535 54.8587 87.8408 54.4069 87.3033C53.9551 86.7658 53.6486 86.1214 53.5168 85.4318L52.5957 80.8099M82.9991 66.9483L86.563 49.141C86.6355 48.7796 86.6268 48.4065 86.5376 48.0488C86.4483 47.6911 86.2807 47.3577 86.0469 47.0726C85.8131 46.7876 85.5189 46.5581 85.1855 46.4006C84.8522 46.2431 84.488 46.1617 84.1193 46.1621H45.667M82.9991 66.9483H49.8242" stroke="white" stroke-width="2" stroke-linecap="round" stroke-linejoin="round"/>
</svg>
