<svg width="140" height="139" viewBox="0 0 140 139" fill="none" xmlns="http://www.w3.org/2000/svg">
<path fill-rule="evenodd" clip-rule="evenodd" d="M12.7058 12.4978C17.4004 7.80321 23.5739 5.38251 32.6874 4.15745C41.8385 2.92734 53.7561 2.92456 69.8229 2.92456C85.8862 2.92456 97.8038 2.92733 106.956 4.15745C116.07 5.38253 122.246 7.80327 126.94 12.4978C131.635 17.1923 134.055 23.3658 135.28 32.4794C136.511 41.6305 136.513 53.5481 136.513 69.6149C136.513 85.6782 136.511 97.5958 135.28 106.748C134.055 115.862 131.635 122.038 126.94 126.732C122.246 131.427 116.072 133.847 106.959 135.072C97.8074 136.303 85.8898 136.305 69.8229 136.305C53.7597 136.305 41.8421 136.303 32.69 135.072C23.5755 133.847 17.4003 131.427 12.7058 126.732C8.01122 122.038 5.59052 115.864 4.36546 106.751C3.13534 97.5994 3.13257 85.6818 3.13257 69.6149C3.13257 53.5517 3.13534 41.6341 4.36546 32.482C5.59054 23.3675 8.01128 17.1923 12.7058 12.4978ZM69.8229 0.307617H69.7175C53.7768 0.307611 41.6842 0.307606 32.3387 1.56384C22.9351 2.8279 16.1172 5.38543 10.8553 10.6473C5.59338 15.9093 3.03589 22.729 1.77184 32.1334C0.515614 41.4797 0.515619 53.5724 0.515625 69.5096V69.6149V69.7203C0.515619 85.6611 0.515614 97.7537 1.77185 107.099C3.0359 116.503 5.59343 123.321 10.8553 128.583C16.1173 133.844 22.937 136.402 32.3414 137.666C41.6876 138.922 53.7801 138.922 69.717 138.922H69.7176H69.8229H69.9283H69.9289C85.8693 138.922 97.9618 138.922 107.307 137.666C116.711 136.402 123.529 133.844 128.791 128.583C134.053 123.321 136.61 116.501 137.874 107.096C139.13 97.7503 139.13 85.6578 139.13 69.7208V69.7203V69.6149V69.5096V69.509C139.13 53.5685 139.13 41.476 137.874 32.1307C136.61 22.7271 134.052 15.9092 128.791 10.6473C123.529 5.38537 116.709 2.82788 107.304 1.56384C97.9581 0.307606 85.8655 0.307611 69.9283 0.307617H69.8229ZM57.4222 29.4532C53.4965 29.4532 49.7317 31.0126 46.9558 33.7885C44.18 36.5643 42.6205 40.3292 42.6205 44.2548C42.6205 48.1805 44.18 51.9453 46.9558 54.7212C48.2338 55.9991 49.7214 57.0193 51.3377 57.7481C49.7219 58.4768 48.2348 59.4967 46.9573 60.7743C44.1818 63.5497 42.6226 67.3141 42.6226 71.2392C42.6226 75.1643 44.1818 78.9286 46.9573 81.7041C48.2348 82.9816 49.7218 84.0015 51.3376 84.7302C50.5963 85.0639 49.8805 85.4598 49.1983 85.9156C46.7646 87.5416 44.8677 89.8528 43.7474 92.5568C42.6271 95.2608 42.3338 98.2363 42.9045 101.107C43.4752 103.978 44.8842 106.615 46.9536 108.685C49.0229 110.755 51.6595 112.165 54.5301 112.736C57.4006 113.308 60.3762 113.015 63.0805 111.896C65.7849 110.776 68.0966 108.88 69.7233 106.447C71.3501 104.014 72.2188 101.153 72.2197 98.2258V98.2254V86.0388H72.2218V84.7303V79.6459C72.7269 80.3779 73.3004 81.0677 73.938 81.7054C76.7139 84.4812 80.4787 86.0407 84.4044 86.0407C88.33 86.0407 92.0949 84.4812 94.8707 81.7054C97.6466 78.9296 99.206 75.1647 99.206 71.239C99.206 67.3134 97.6466 63.5485 94.8707 60.7727C93.5931 59.495 92.1059 58.4751 90.4899 57.7462C92.1049 57.0175 93.5911 55.998 94.8681 54.721C97.644 51.9451 99.2034 48.1803 99.2034 44.2546C99.2034 40.329 97.644 36.5641 94.8681 33.7883C92.0923 31.0124 88.3274 29.453 84.4018 29.453L70.9106 29.453H69.6021V29.4532H57.4222ZM72.2218 56.4393L72.2218 32.0699H84.4018C87.6334 32.0699 90.7326 33.3537 93.0177 35.6387C95.3027 37.9238 96.5865 41.023 96.5865 44.2546C96.5865 47.4862 95.3027 50.5854 93.0177 52.8705C90.7709 55.1173 87.7371 56.396 84.5643 56.4383C84.511 56.4377 84.4577 56.4374 84.4044 56.4374C84.3243 56.4374 84.2442 56.438 84.1643 56.4393H72.2218ZM69.6021 32.0701L69.6021 56.4395L57.4222 56.4395C54.1906 56.4395 51.0914 55.1558 48.8063 52.8707C46.5212 50.5856 45.2375 47.4864 45.2375 44.2548C45.2375 41.0232 46.5212 37.924 48.8063 35.6389C51.0914 33.3539 54.1906 32.0701 57.4222 32.0701H69.6021ZM72.2218 59.0563H75.9978C75.2657 59.5614 74.5758 60.135 73.938 60.7727C73.3004 61.4103 72.7269 62.1002 72.2218 62.8322V59.0563ZM84.1867 59.0563C81.0339 59.1125 78.0222 60.3894 75.7885 62.6232C73.5574 64.8543 72.2809 67.8615 72.2218 71.0103V71.4678C72.2809 74.6166 73.5574 77.6238 75.7885 79.8549C78.0736 82.14 81.1728 83.4238 84.4044 83.4238C87.636 83.4238 90.7352 82.14 93.0203 79.8549C95.3054 77.5699 96.5891 74.4706 96.5891 71.239C96.5891 68.0075 95.3054 64.9082 93.0203 62.6232C90.773 60.3758 87.7381 59.097 84.5644 59.0554C84.5102 59.056 84.456 59.0563 84.4018 59.0563H84.1867ZM69.6027 71.239C69.6027 71.1549 69.6035 71.0709 69.6049 70.987V59.0565L57.4222 59.0565C54.1911 59.0565 51.0924 60.34 48.8077 62.6247C46.523 64.9094 45.2395 68.0081 45.2395 71.2392C45.2395 74.4702 46.523 77.5689 48.8077 79.8536C51.0924 82.1383 54.1911 83.4219 57.4222 83.4219H69.6049V71.4911C69.6041 71.4456 69.6035 71.4001 69.6032 71.3546C69.6029 71.3161 69.6027 71.2776 69.6027 71.239ZM57.42 86.0427C55.0094 86.0427 52.6543 86.7538 50.6521 88.0916C48.6487 89.4301 47.0872 91.3325 46.1651 93.5584C45.2429 95.7843 45.0014 98.2336 45.4712 100.597C45.941 102.96 47.1009 105.131 48.8043 106.835C50.5077 108.538 52.6781 109.699 55.0411 110.17C57.4041 110.64 59.8535 110.399 62.0796 109.478C64.3058 108.556 66.2087 106.995 67.5478 104.992C68.8868 102.99 69.6019 100.635 69.6027 98.2254V98.225V86.0427H57.42Z" fill="white"/>
</svg>
