<svg width="132" height="133" viewBox="0 0 132 133" fill="none" xmlns="http://www.w3.org/2000/svg">
<path d="M1.1499 66.6291C1.1499 36.0802 1.1499 20.8093 10.6393 11.32C20.1287 1.83057 35.4067 1.83057 65.9484 1.83057C96.4902 1.83057 111.768 1.83057 121.258 11.32C130.747 20.8093 130.747 36.0874 130.747 66.6291C130.747 97.1708 130.747 112.449 121.258 121.938C111.768 131.428 96.4902 131.428 65.9484 131.428C35.4067 131.428 20.1287 131.428 10.6393 121.938C1.1499 112.449 1.1499 97.1708 1.1499 66.6291Z" stroke="white" stroke-width="2.16832" stroke-linecap="round" stroke-linejoin="round"/>
<path d="M102.184 37.0101L90.3186 96.799C90.0884 97.9582 89.5352 99.0287 88.7228 99.8871C87.9103 100.745 86.8717 101.356 85.7268 101.65L68.7261 106.016C66.6813 106.541 64.5371 106.541 62.4923 106.016L45.4874 101.65C44.3446 101.355 43.3081 100.744 42.4973 99.8869C41.6865 99.0295 41.1342 97.9606 40.904 96.8032L29.034 37.0101C28.8536 36.1015 28.877 35.1642 29.1023 34.2657C29.3276 33.3671 29.7493 32.5297 30.3371 31.8137C30.9249 31.0977 31.664 30.5209 32.5014 30.1248C33.3388 29.7287 34.2536 29.5231 35.18 29.5229H96.0384C96.9647 29.5231 97.8795 29.7287 98.7169 30.1248C99.5543 30.5209 100.294 31.0977 100.881 31.8137C101.469 32.5297 101.891 33.3671 102.116 34.2657C102.341 35.1642 102.365 36.1015 102.184 37.0101Z" stroke="white" stroke-width="2" stroke-linecap="round" stroke-linejoin="round"/>
<path d="M86.5002 45.7383H47.7774C47.4062 45.7378 47.0394 45.8199 46.7037 45.9784C46.368 46.137 46.0718 46.3682 45.8363 46.6552C45.6008 46.9423 45.432 47.278 45.3422 47.6382C45.2523 47.9985 45.2435 48.3742 45.3165 48.7382L48.9055 66.6706H82.3138L78.591 85.2967C78.4501 86.001 78.13 86.657 77.6616 87.2015C77.1932 87.746 76.5924 88.1606 75.9171 88.4052L67.0344 91.6223C66.1152 91.9552 65.1083 91.9552 64.1891 91.6223L55.3022 88.4052C54.6269 88.1606 54.0261 87.746 53.5577 87.2015C53.0893 86.657 52.7692 86.001 52.6282 85.2967L51.6923 80.6214" stroke="white" stroke-width="2" stroke-linecap="round" stroke-linejoin="round"/>
</svg>
