<svg width="136" height="135" viewBox="0 0 136 135" fill="none" xmlns="http://www.w3.org/2000/svg">
<path d="M1.80762 67.4526C1.80762 36.354 1.80762 20.7978 11.4678 11.1377C21.1279 1.47754 36.6772 1.47754 67.7827 1.47754C98.8813 1.47754 114.437 1.47754 124.098 11.1377C133.758 20.7978 133.758 36.3471 133.758 67.4526C133.758 98.5512 133.758 114.107 124.098 123.768C114.437 133.428 98.8882 133.428 67.7827 133.428C36.6841 133.428 21.1279 133.428 11.4678 123.768C1.80762 114.107 1.80762 98.5581 1.80762 67.4526Z" stroke="white" stroke-width="2.61694" stroke-linecap="round" stroke-linejoin="round"/>
<path d="M74.7256 95.2308L68.7114 75.7855M68.7114 75.7855L63.6834 59.5279C59.5861 46.2912 57.5374 39.6729 53.8914 39.6729C50.2454 39.6729 48.1967 46.2912 44.0993 59.5279L39.0713 75.7855M68.7114 75.7855H39.0713M33.0571 95.2308L39.0713 75.7855M95.5598 95.2308V60.5071M95.5598 43.1452V39.6729" stroke="white" stroke-width="2.61694" stroke-linecap="round" stroke-linejoin="round"/>
</svg>
