<svg width="136" height="135" viewBox="0 0 136 135" fill="none" xmlns="http://www.w3.org/2000/svg">
<path d="M2.14551 67.4526C2.14551 36.354 2.14551 20.7978 11.8056 11.1377C21.4658 1.47754 37.0151 1.47754 68.1206 1.47754C99.2191 1.47754 114.775 1.47754 124.436 11.1377C134.096 20.7978 134.096 36.3471 134.096 67.4526C134.096 98.5512 134.096 114.107 124.436 123.768C114.775 133.428 99.2261 133.428 68.1206 133.428C37.022 133.428 21.4658 133.428 11.8056 123.768C2.14551 114.107 2.14551 98.5581 2.14551 67.4526Z" stroke="white" stroke-width="2.61694" stroke-linecap="round" stroke-linejoin="round"/>
<path d="M103.864 62.6134V91.3864C103.864 99.3123 100.144 98.5683 93.0834 98.5683C88.3155 98.5683 83.7429 96.6743 80.3714 93.3028C77 89.9314 75.106 85.3588 75.106 80.5908C75.106 75.8229 77 71.2503 80.3714 67.8789C83.7429 64.5074 88.3155 62.6134 93.0834 62.6134H103.864ZM103.864 62.6134V41.0298" stroke="white" stroke-width="2.16832" stroke-linecap="round" stroke-linejoin="round"/>
<path d="M44.098 97.7567C44.098 98.3555 44.5834 98.8409 45.1821 98.8409C45.7809 98.8409 46.2663 98.3555 46.2663 97.7567L44.098 97.7567ZM44.098 40.3003L44.098 97.7567L46.2663 97.7567L46.2663 40.3003L44.098 40.3003Z" fill="white"/>
<path d="M62.2661 40.3003L31.2086 40.3003" stroke="white" stroke-width="2.16832" stroke-linecap="round"/>
<path d="M62.2661 99.3076H31.2086" stroke="white" stroke-width="2.16832" stroke-linecap="round"/>
</svg>
