<svg width="133" height="133" viewBox="0 0 133 133" fill="none" xmlns="http://www.w3.org/2000/svg">
<path d="M1.85254 66.6291C1.85254 36.0802 1.85254 20.8093 11.3419 11.32C20.8313 1.83057 36.1094 1.83057 66.6511 1.83057C97.1928 1.83057 112.471 1.83057 121.96 11.32C131.45 20.8093 131.45 36.0874 131.45 66.6291C131.45 97.1708 131.45 112.449 121.96 121.938C112.471 131.428 97.1928 131.428 66.6511 131.428C36.1094 131.428 20.8313 131.428 11.3419 121.938C1.85254 112.449 1.85254 97.1708 1.85254 66.6291Z" stroke="white" stroke-width="2.16832" stroke-linecap="round" stroke-linejoin="round"/>
<path d="M102.819 37.4949L91.0357 96.8662C90.8072 98.0173 90.2578 99.0804 89.451 99.9327C88.6442 100.785 87.6129 101.392 86.476 101.683L69.594 106.019C67.5635 106.54 65.4343 106.54 63.4038 106.019L46.5176 101.683C45.3828 101.391 44.3536 100.784 43.5484 99.9326C42.7432 99.0811 42.1948 98.0197 41.9662 96.8703L30.1791 37.4949C30 36.5927 30.0232 35.6619 30.247 34.7696C30.4707 33.8774 30.8895 33.0458 31.4732 32.3348C32.0568 31.6238 32.7908 31.051 33.6224 30.6577C34.4539 30.2644 35.3623 30.0602 36.2822 30.0601H96.7156C97.6355 30.0602 98.5439 30.2644 99.3754 30.6577C100.207 31.051 100.941 31.6238 101.525 32.3348C102.108 33.0458 102.527 33.8774 102.751 34.7696C102.975 35.6619 102.998 36.5927 102.819 37.4949Z" stroke="white" stroke-width="2" stroke-linecap="round" stroke-linejoin="round"/>
<path d="M63.4464 39.7617V93.7089L47.8936 88.0394M91.8249 40.3586H73.8582V69.3814L88.7628 66.8757L87.5374 88.3785L72.114 93.7074" stroke="white" stroke-width="2" stroke-linecap="round" stroke-linejoin="round"/>
</svg>
