<svg width="135" height="135" viewBox="0 0 135 135" fill="none" xmlns="http://www.w3.org/2000/svg">
<path fill-rule="evenodd" clip-rule="evenodd" d="M12.0037 12.2854C16.5501 7.73903 22.5303 5.39241 31.3682 4.2044C40.2438 3.01132 51.8037 3.00854 67.3934 3.00854C82.9797 3.00854 94.5395 3.01132 103.416 4.2044C112.255 5.39243 118.237 7.73909 122.783 12.2854C127.33 16.8318 129.676 22.812 130.864 31.65C132.057 40.5256 132.06 52.0854 132.06 67.6751C132.06 83.2614 132.057 94.8212 130.864 103.698C129.676 112.537 127.329 118.518 122.783 123.065C118.237 127.611 112.257 129.958 103.419 131.146C94.543 132.339 82.9831 132.342 67.3934 132.342C51.8071 132.342 40.2473 132.339 31.3708 131.146C22.5319 129.958 16.55 127.611 12.0037 123.065C7.4573 118.518 5.11067 112.538 3.92266 103.7C2.72958 94.8247 2.7268 83.2649 2.7268 67.6751C2.7268 52.0889 2.72958 40.529 3.92266 31.6526C5.11069 22.8136 7.45735 16.8318 12.0037 12.2854ZM67.3934 0.391602H67.2881C51.8244 0.391595 40.0895 0.391591 31.0196 1.61078C21.8915 2.8378 15.267 5.32125 10.1532 10.435C5.03945 15.5488 2.55604 22.1751 1.32904 31.304C0.109852 40.3747 0.109857 52.1096 0.109863 67.5698L0.109863 67.6751L0.109863 67.7805C0.109857 83.2442 0.109852 94.9791 1.32904 104.049C2.55606 113.177 5.03951 119.802 10.1532 124.915C15.267 130.029 21.8934 132.512 31.0222 133.74C40.0928 134.959 51.8275 134.959 67.2876 134.959H67.2881H67.3934H67.4987H67.4993C82.9627 134.959 94.6974 134.959 103.767 133.74C112.895 132.512 119.52 130.029 124.634 124.915C129.747 119.802 132.231 113.175 133.458 104.046C134.677 94.9757 134.677 83.241 134.677 67.781V67.7804V67.6751V67.5698V67.5693C134.677 52.1058 134.677 40.3711 133.458 31.3013C132.231 22.1733 129.747 15.5487 124.634 10.435C119.52 5.32119 112.893 2.83778 103.765 1.61078C94.6938 0.391591 82.959 0.391595 67.4987 0.391602H67.3934ZM117.171 90.8305C117.821 90.292 118.061 89.6366 117.768 88.8535C117.467 88.0509 116.816 87.799 116.005 87.855L113.65 88.0158C112.151 88.1167 110.652 88.215 109.153 88.3133C108.297 88.3695 107.441 88.4256 106.585 88.4823C97.7278 89.0696 88.8711 89.6572 80.0147 90.2451C77.2664 90.4275 74.5182 90.6105 71.77 90.7935C68.2378 91.0287 64.7057 91.2639 61.1734 91.4978L34.602 93.2524C33.5305 93.3234 32.4588 93.3936 31.3872 93.4637C27.8424 93.6958 24.2975 93.928 20.7544 94.1885C19.0429 94.3143 18.5245 95.3647 19.3213 96.9307C19.7761 97.8236 20.2326 98.7149 20.6906 99.6046L22.0608 102.271C22.0349 102.305 22.0136 102.338 21.9943 102.367C21.9577 102.422 21.9279 102.467 21.8868 102.496C21.3015 102.902 20.718 103.31 20.1344 103.719C18.5172 104.851 16.8998 105.984 15.2449 107.055C14.4468 107.571 13.4989 107.892 12.579 108.146L12.5285 108.16C11.663 108.413 11.1061 108.964 11.1407 109.841C11.1761 110.732 11.8118 111.438 12.7362 111.317C13.7291 111.187 14.7757 110.965 15.6469 110.488C16.7527 109.883 17.8047 109.174 18.8569 108.465C19.3346 108.143 19.8124 107.821 20.2953 107.508C20.5574 107.339 20.8195 107.169 21.0816 106.999C22.4552 106.109 23.8289 105.219 25.2163 104.352C26.1513 103.769 27.081 103.94 27.9443 104.553C28.4135 104.886 28.8696 105.24 29.3255 105.593C29.4709 105.706 29.6162 105.818 29.762 105.93L29.9891 106.106C30.4159 106.438 30.8384 106.777 31.2608 107.116C32.3338 107.977 33.4067 108.838 34.5511 109.582C38.4057 112.09 42.3533 112.198 46.2314 109.604C47.2606 108.915 48.2412 108.148 49.2152 107.373L49.9456 106.793L50.1891 106.6C53.1676 104.245 55.5962 104.239 58.5225 106.61C58.9358 106.945 59.3433 107.288 59.7508 107.632C60.6129 108.36 61.4748 109.087 62.3917 109.731C66.1029 112.34 70.2045 112.207 73.7859 109.421C74.363 108.968 74.9311 108.503 75.4899 108.026L76.1628 107.457C76.4987 107.172 76.837 106.889 77.1775 106.61C80.1033 104.216 83.0906 104.214 86.0063 106.608C86.587 107.084 87.1553 107.576 87.7237 108.069C87.9167 108.236 88.1096 108.403 88.303 108.569C90.4368 110.405 92.7663 111.742 95.6607 111.697C98.2996 111.656 100.463 110.456 102.467 108.826C102.765 108.583 103.062 108.337 103.359 108.09C104.297 107.31 105.237 106.529 106.247 105.862C108.502 104.371 110.85 104.416 113.063 105.969C113.966 106.603 114.797 107.346 115.627 108.089C115.894 108.328 116.161 108.567 116.43 108.802C118.201 110.348 120.09 111.628 122.501 111.788C123.639 111.864 124.392 111.292 124.465 110.313C124.539 109.327 123.865 108.752 122.755 108.512L122.553 108.467C121.638 108.259 120.684 107.969 119.939 107.439C119.014 106.78 118.152 106.028 117.29 105.276C116.716 104.775 116.141 104.274 115.547 103.8C112.051 101.008 108.066 100.784 104.37 103.26C103.359 103.937 102.416 104.719 101.472 105.501C100.989 105.9 100.507 106.3 100.016 106.685C98.7999 107.639 97.4833 108.382 95.9117 108.443C94.476 108.498 93.124 108.221 91.9261 107.236L97.7343 104.15C104.691 100.448 111.082 95.8735 117.171 90.8305ZM110.951 91.4235L111.03 91.6226C110.77 91.8213 110.51 92.0204 110.25 92.2196C109.662 92.6702 109.074 93.1209 108.482 93.5663C103.206 97.5343 97.4917 100.727 91.6671 103.733L91.0314 104.06C89.7254 104.73 88.7501 104.781 87.4397 103.764L87.3158 103.669C83.2208 100.565 79.0001 100.901 74.836 104.381C74.4891 104.671 74.1462 104.966 73.8032 105.261C73.2384 105.747 72.6737 106.233 72.0917 106.696C69.2828 108.93 66.4181 108.922 63.5945 106.673C63.042 106.233 62.5017 105.776 61.9613 105.32C61.4006 104.846 60.8398 104.372 60.2654 103.917C56.4055 100.856 52.6594 100.795 48.7052 103.727C48.1369 104.148 47.5795 104.585 47.0222 105.022C46.3391 105.557 45.6561 106.093 44.9533 106.599C41.9283 108.777 39.0326 108.841 35.9576 106.693C35.021 106.038 34.1279 105.318 33.2347 104.597C32.478 103.986 31.7211 103.376 30.9374 102.805C29.9829 102.11 28.9479 101.479 27.865 101.039C27.4047 100.852 26.8724 100.856 26.3391 100.859C26.0862 100.861 25.8331 100.863 25.5873 100.844L25.5333 100.841L25.4762 100.839L25.2858 100.834C25.0995 100.827 24.9215 100.809 24.8706 100.72C24.3992 99.8959 23.9618 99.0509 23.4884 98.1362C23.4083 97.9814 23.3271 97.8246 23.2445 97.6655L23.0276 97.2482L110.951 91.4235ZM55.2155 32.4637C47.4483 25.3212 38.9024 19.3785 29.3861 14.9609C28.3777 14.4927 27.6986 14.5573 27.1713 15.1668C26.6618 15.7554 26.6525 16.4719 27.1563 17.392C30.2406 23.0208 32.7985 28.8893 34.7698 35.0283C36.2936 39.7734 37.4579 44.6073 37.747 49.603C38.1321 56.2499 37.5044 62.8198 35.7854 69.2494C34.0256 75.8298 31.3717 81.9497 26.8105 87.0456C26.1788 87.7512 26.1779 88.5579 26.7251 89.2261C27.251 89.8698 28.1058 89.9618 28.912 89.4357C33.2779 86.5873 37.9763 84.5001 42.9155 82.9696C50.3635 80.6624 57.9284 80.3681 65.5893 81.5507C71.3865 82.4453 76.9964 84.0118 82.4292 86.2707C83.5236 86.7258 84.5732 85.9337 84.5719 84.5853L84.4949 84.0396L84.4444 83.698C83.3864 76.7304 81.0834 70.1682 78.1226 63.8502C72.4968 51.8469 64.8797 41.3518 55.2155 32.4637ZM59.5786 26.6755C59.2733 26.5928 58.9852 26.5147 58.7239 26.4363C57.688 26.5352 57.1183 26.8322 56.8739 27.5874C56.626 28.3554 56.9084 29.0592 57.6619 29.5662C60.9144 31.754 63.8593 34.33 66.6576 37.0936C71.3971 41.7727 75.0441 47.2803 78.2298 53.1369L78.4768 53.5942C83.4178 62.7756 87.3206 72.3984 90.0888 82.5045C90.3766 83.5549 91.0353 83.979 92.0899 83.8119C92.3555 83.77 92.6211 83.7235 92.8832 83.662C95.7253 82.9978 98.4851 83.2347 101.171 84.4209L101.579 84.5981C102.086 84.8154 102.598 85.0226 103.109 85.2298C103.56 85.4123 104.011 85.5948 104.458 85.7842L104.505 85.8034C105.172 86.0721 105.804 86.0371 106.331 85.5082C106.847 84.9903 106.875 84.3343 106.653 83.6565C106.611 83.5275 106.565 83.3996 106.519 83.2717C106.509 83.2439 106.499 83.2161 106.489 83.1883L106.343 82.7787C104.24 76.9153 101.761 71.2236 98.8835 65.7178C96.3455 60.8629 93.5618 56.1592 90.1685 51.8833C85.2926 45.7398 79.8408 40.1692 73.8864 35.133C70.2226 32.0342 66.3769 29.1977 61.9132 27.4098C61.126 27.0949 60.304 26.8721 59.5786 26.6755ZM32.3978 20.6658C32.3075 20.4791 32.2407 20.2791 32.2318 20.0235C43.9727 26.3379 54.2372 34.5564 62.6764 45.0742C71.4303 55.9848 77.9252 68.1138 81.0582 82.2248C80.8389 82.1517 80.6403 82.086 80.4557 82.0249C80.1953 81.9388 79.9627 81.8619 79.7389 81.7862L79.2108 81.6058C71.4768 78.9638 63.5569 77.4469 55.3802 77.6565C48.2191 77.84 41.401 79.6247 34.8579 82.5801C34.538 82.724 34.2155 82.8617 33.8906 82.9933C33.8671 83.0028 33.8353 82.9912 33.7862 82.9733C33.7578 82.9629 33.7235 82.9503 33.6817 82.9386L34.2253 81.8896L34.5839 81.1995C37.6669 75.2755 39.4545 68.9328 40.343 62.3014C41.0181 57.2661 41.2523 52.2163 40.6825 47.1537C40.1734 42.6304 39.111 38.2319 37.7253 33.9164C36.2648 29.3671 34.4661 24.9582 32.3978 20.6658ZM71.1886 37.253L71.085 37.1323C73.6522 38.5626 85.4945 50.2589 89.9171 56.8466C95.0316 64.4651 99.0735 72.638 102.493 81.4181C102.324 81.3672 102.183 81.3276 102.059 81.2931C101.842 81.2321 101.681 81.1871 101.527 81.1243L101.396 81.0719C98.872 80.0716 96.2685 79.8343 93.6048 80.2907L93.5636 80.2975C92.9713 80.3896 92.7172 80.2137 92.5321 79.5883L92.4245 79.2262C88.8639 67.2802 83.9791 55.9447 77.3364 45.4614C76.2863 43.8043 75.0919 42.2427 73.8825 40.6922L73.0772 39.6618C72.5835 39.032 72.0958 38.3973 71.6141 37.7577C71.5463 37.6675 71.4742 37.581 71.3945 37.489L71.1886 37.253Z" fill="white"/>
</svg>
