<svg width="135" height="135" viewBox="0 0 135 135" fill="none" xmlns="http://www.w3.org/2000/svg">
<path d="M1.46875 67.4526C1.46875 36.354 1.46875 20.7978 11.1289 11.1377C20.789 1.47754 36.3383 1.47754 67.4438 1.47754C98.5424 1.47754 114.099 1.47754 123.759 11.1377C133.419 20.7978 133.419 36.3471 133.419 67.4526C133.419 98.5512 133.419 114.107 123.759 123.768C114.099 133.428 98.5493 133.428 67.4438 133.428C36.3453 133.428 20.789 133.428 11.1289 123.768C1.46875 114.107 1.46875 98.5581 1.46875 67.4526Z" stroke="white" stroke-width="2.61694" stroke-linecap="round" stroke-linejoin="round"/>
<path d="M29.25 95.2308L29.25 67.4518M29.25 67.4518L29.25 47.4857C29.25 46.6801 29.25 46.2773 29.2847 45.937C29.4424 44.3384 30.1494 42.844 31.2852 41.7081C32.4211 40.5722 33.9156 39.8653 35.5142 39.7076C35.8545 39.6729 36.2572 39.6729 37.0628 39.6729H46.6119C50.2956 39.6729 53.8284 41.1362 56.4332 43.741C59.038 46.3458 60.5014 49.8786 60.5014 53.5623C60.5014 57.2461 59.038 60.7789 56.4332 63.3837C53.8284 65.9885 50.2956 67.4518 46.6119 67.4518H29.25ZM105.406 62.0558C104.198 57.2222 98.5447 53.5623 91.7527 53.5623C84.0788 53.5623 77.8632 58.2292 77.8632 63.9795C77.8632 69.7297 84.0788 74.3966 91.7527 74.3966C99.4266 74.3966 105.642 79.0634 105.642 84.8137C105.642 90.5639 99.4266 95.2308 91.7527 95.2308C84.933 95.2308 79.2661 91.5501 78.0854 86.6888" stroke="white" stroke-width="2.61694" stroke-linecap="round" stroke-linejoin="round"/>
</svg>
