<svg width="135" height="135" viewBox="0 0 135 135" fill="none" xmlns="http://www.w3.org/2000/svg">
<path fill-rule="evenodd" clip-rule="evenodd" d="M11.9641 12.2854C16.5106 7.73903 22.4907 5.39241 31.3287 4.2044C40.2043 3.01132 51.7641 3.00854 67.3539 3.00854C82.9401 3.00854 94.5 3.01132 103.376 4.2044C112.215 5.39243 118.197 7.73909 122.744 12.2854C127.29 16.8318 129.637 22.812 130.825 31.65C132.018 40.5256 132.02 52.0854 132.02 67.6751C132.02 83.2614 132.018 94.8212 130.825 103.698C129.637 112.537 127.29 118.518 122.744 123.065C118.197 127.611 112.217 129.958 103.379 131.146C94.5034 132.339 82.9436 132.342 67.3539 132.342C51.7676 132.342 40.2078 132.339 31.3313 131.146C22.4923 129.958 16.5105 127.611 11.9641 123.065C7.41775 118.518 5.07112 112.538 3.88311 103.7C2.69003 94.8247 2.68725 83.2649 2.68725 67.6751C2.68725 52.0889 2.69003 40.529 3.88311 31.6526C5.07114 22.8136 7.4178 16.8318 11.9641 12.2854ZM67.3539 0.391602H67.2485C51.7848 0.391595 40.0499 0.391591 30.9801 1.61078C21.852 2.8378 15.2274 5.32125 10.1137 10.435C4.9999 15.5488 2.51649 22.1751 1.28949 31.304C0.0703014 40.3747 0.0703062 52.1096 0.0703125 67.5698L0.0703125 67.6751L0.0703125 67.7805C0.0703062 83.2442 0.0703014 94.9791 1.28949 104.049C2.51651 113.177 4.99996 119.802 10.1137 124.915C15.2275 130.029 21.8538 132.512 30.9827 133.74C40.0533 134.959 51.788 134.959 67.248 134.959H67.2486H67.3539H67.4592H67.4597C82.9232 134.959 94.6579 134.959 103.728 133.74C112.856 132.512 119.48 130.029 124.594 124.915C129.708 119.802 132.191 113.175 133.418 104.046C134.637 94.9757 134.637 83.241 134.637 67.781V67.7804V67.6751V67.5698V67.5693C134.637 52.1058 134.637 40.3711 133.418 31.3013C132.191 22.1733 129.708 15.5487 124.594 10.435C119.48 5.32119 112.854 2.83778 103.725 1.61078C94.6543 0.391591 82.9194 0.391595 67.4591 0.391602H67.3539ZM43.1888 53.6505H50.6874C53.1734 53.6505 55.5575 54.6381 57.3153 56.3959C59.0732 58.1537 60.0607 60.5378 60.0607 63.0238C60.0607 65.5097 59.0732 67.8938 57.3153 69.6516C55.5575 71.4095 53.1734 72.397 50.6874 72.397H45.0635V78.021C45.0635 78.5182 44.866 78.995 44.5144 79.3465C44.1629 79.6981 43.686 79.8956 43.1888 79.8956C42.6917 79.8956 42.2148 79.6981 41.8633 79.3465C41.5117 78.995 41.3142 78.5182 41.3142 78.021L41.3142 55.5252C41.3142 55.028 41.5117 54.5512 41.8633 54.1996C42.2148 53.848 42.6917 53.6505 43.1888 53.6505ZM45.0635 68.6477H50.6874C52.179 68.6477 53.6095 68.0552 54.6642 67.0005C55.7189 65.9458 56.3114 64.5153 56.3114 63.0238C56.3114 61.5322 55.7189 60.1017 54.6642 59.047C53.6095 57.9923 52.179 57.3998 50.6874 57.3998H45.0635L45.0635 68.6477ZM48.4821 24.8694C54.988 21.6164 62.1601 19.9177 69.4339 19.9068C77.4226 19.9068 85.2787 21.9489 92.2561 25.8391C99.2336 29.7293 105.101 35.3385 109.301 42.134C113.501 48.9296 115.894 56.6859 116.253 64.6665C116.612 72.6471 114.925 80.587 111.352 87.7323C107.78 94.8776 102.44 100.991 95.84 105.492C89.2401 109.993 81.5992 112.733 73.6428 113.45C65.6864 114.167 57.6787 112.839 50.3801 109.591C43.0814 106.343 36.7341 101.284 31.9409 94.8928H24.4423C22.9508 94.8928 21.5203 94.3003 20.4656 93.2456C19.4109 92.1909 18.8184 90.7604 18.8184 89.2689L18.8184 44.2773C18.8184 42.7857 19.4109 41.3552 20.4656 40.3005C21.5203 39.2458 22.9508 38.6533 24.4423 38.6533H31.9409C36.3139 32.8408 41.9762 28.1224 48.4821 24.8694ZM78.8072 64.8984H112.509C112.026 54.1268 107.53 43.9258 99.9055 36.3014C92.2812 28.6771 82.0802 24.1814 71.3086 23.6983V38.6533H73.1832C74.6748 38.6533 76.1053 39.2458 77.16 40.3005C78.2147 41.3552 78.8072 42.7857 78.8072 44.2773L78.8072 64.8984ZM67.5593 38.6533V23.703C61.6769 23.9683 55.9106 25.4311 50.613 28.0017C45.3154 30.5723 40.598 34.1968 36.7494 38.6533L67.5593 38.6533ZM22.5677 44.2773L22.5677 89.2689C22.5677 89.766 22.7652 90.2429 23.1168 90.5944C23.4683 90.946 23.9452 91.1435 24.4423 91.1435L73.1832 91.1435C73.6804 91.1435 74.1572 90.946 74.5088 90.5944C74.8604 90.2429 75.0579 89.766 75.0579 89.2689L75.0579 44.2773C75.0579 43.7801 74.8604 43.3033 74.5088 42.9517C74.1572 42.6001 73.6804 42.4026 73.1832 42.4026L24.4423 42.4026C23.9452 42.4026 23.4683 42.6001 23.1168 42.9517C22.7652 43.3033 22.5677 43.7801 22.5677 44.2773ZM67.5593 94.8928L36.7494 94.8928C40.598 99.3494 45.3154 102.974 50.613 105.544C55.9106 108.115 61.6769 109.578 67.5593 109.843V94.8928ZM71.3086 94.8928V109.848C82.0802 109.365 92.2812 104.869 99.9055 97.2447C107.53 89.6204 112.026 79.4193 112.509 68.6477H78.8072V89.2689C78.8072 90.7604 78.2147 92.1909 77.16 93.2456C76.1053 94.3003 74.6748 94.8928 73.1832 94.8928H71.3086Z" fill="white"/>
</svg>
