<svg width="139" height="140" viewBox="0 0 139 140" fill="none" xmlns="http://www.w3.org/2000/svg">
<path fill-rule="evenodd" clip-rule="evenodd" d="M32.2904 4.41331C23.1769 5.63837 17.0034 8.05907 12.3088 12.7536C7.6143 17.4481 5.19356 23.6234 3.96849 32.7379C2.73837 41.8899 2.73559 53.8076 2.73559 69.8708C2.73559 85.9376 2.73837 97.8552 3.96849 107.006C5.19355 116.12 7.61425 122.293 12.3088 126.988C17.0033 131.682 23.1785 134.103 32.2931 135.328C41.4451 136.558 53.3627 136.561 69.426 136.561C85.4928 136.561 97.4104 136.558 106.562 135.328C115.675 134.103 121.849 131.683 126.543 126.988C131.238 122.293 133.658 116.118 134.883 107.004C136.114 97.8517 136.116 85.934 136.116 69.8708C136.116 53.804 136.114 41.8864 134.883 32.7352C133.658 23.6217 131.238 17.4482 126.543 12.7536C121.849 8.05913 115.673 5.63839 106.559 4.41331C97.4068 3.18319 85.4892 3.18042 69.426 3.18042C53.3591 3.18042 41.4415 3.18319 32.2904 4.41331ZM69.3206 0.563477H69.426H69.5313C85.4685 0.563471 97.5612 0.563466 106.907 1.8197C116.312 3.08374 123.132 5.64123 128.394 10.9032C133.655 16.1651 136.213 22.9829 137.477 32.3866C138.733 41.732 138.733 53.8247 138.733 69.7654V69.8708V69.9761C138.733 85.9133 138.733 98.006 137.477 107.352C136.213 116.757 133.656 123.576 128.394 128.838C123.132 134.1 116.314 136.658 106.91 137.922C97.5647 139.178 85.4721 139.178 69.5313 139.178H69.426H69.3206C53.3834 139.178 41.2908 139.178 31.9445 137.922C22.54 136.658 15.7203 134.1 10.4584 128.838C5.19646 123.577 2.63893 116.759 1.37487 107.355C0.118642 98.0096 0.118646 85.9169 0.118652 69.9762L0.118652 69.8708L0.118652 69.7654C0.118646 53.8282 0.118642 41.7356 1.37487 32.3893C2.63891 22.9849 5.1964 16.1651 10.4584 10.9032C15.7203 5.64129 22.5381 3.08376 31.9418 1.8197C41.2872 0.563466 53.3798 0.563471 69.3206 0.563477Z" fill="white"/>
<path d="M30.0793 106.276L31.1511 106.407C33.1242 97.2063 36.5196 92.0338 41.5862 88.6122C46.7015 85.1578 53.5678 83.4475 62.6276 81.3167C71.6796 79.1933 78.7064 76.9242 84.8456 73.5359C90.9919 70.1437 96.2217 65.6448 101.705 59.0954L101.705 59.0952C107.251 52.4645 109.065 44.4342 109.502 38.0975C109.721 34.9252 109.596 32.1649 109.416 30.1965C109.326 29.2119 109.222 28.4244 109.14 27.8813C109.099 27.6097 109.064 27.3992 109.039 27.2556C109.026 27.1838 109.016 27.1288 109.009 27.0912L109 27.048L108.998 27.0364L108.998 27.0331L108.997 27.0321C108.997 27.0318 108.997 27.0315 108.466 27.1377L108.997 27.0315L107.924 27.1377C107.924 36.9399 100.962 43.4388 94.0778 48.2095C87.7389 52.6026 79.7881 54.958 68.6273 58.2644C67.7907 58.5122 66.9362 58.7654 66.0629 59.0251C59.8004 60.888 51.0625 63.9733 43.7598 70.9729C36.4407 77.9883 30.6129 88.8867 30.0793 106.276Z" stroke="white" stroke-width="1.08416"/>
<path d="M30.0742 106.318L31.1578 106.324C31.1904 105.433 31.2339 104.575 31.2881 103.728L30.2082 103.636C30.1084 104.567 30.0515 105.466 30.0742 106.318Z" stroke="white" stroke-width="1.08416"/>
<path d="M77.18 77.0624L77.2256 77.0538L77.2691 77.0375C87.6481 73.1633 95.5467 67.8439 102.237 59.1559C103.13 58.0058 103.91 56.7911 104.599 55.5353L104.617 55.502L104.631 55.4665C107.113 48.9133 108.2 41.8241 108.669 36.387C108.904 33.6656 108.985 31.3517 109.006 29.7169C109.017 28.8994 109.013 28.2515 109.007 27.8069C109.003 27.5846 108.999 27.4132 108.996 27.2968C108.995 27.2386 108.993 27.1942 108.992 27.1641L108.991 27.1297L108.991 27.1206L108.991 27.1182L108.991 27.1175C108.991 27.1173 108.991 27.1171 108.449 27.1382L108.991 27.1171L107.907 27.1382C107.907 36.9404 100.945 43.4392 94.061 48.2099C91.2334 50.1666 88.0631 51.7322 84.4191 53.1529L84.3736 53.1707L84.3319 53.1963C78.6753 56.6773 72.1654 60.085 64.9321 63.2987L64.932 63.2987C41.9897 73.494 31.4648 92.141 30.2074 103.624L30.2061 103.636L30.2053 103.649C30.1504 104.516 30.1065 105.384 30.0735 106.273L31.1557 106.336C31.5498 101.287 34.023 95.4748 37.7941 90.5577C41.5653 85.6405 46.5834 81.6838 52.0075 80.2653L52.0083 80.2651C55.0891 79.4547 58.9954 79.097 63.3543 78.7204C63.5129 78.7067 63.6721 78.693 63.8319 78.6792C68.0422 78.3161 72.6298 77.9205 77.18 77.0624Z" stroke="white" stroke-width="1.08416"/>
<path d="M66.2191 59.5447C54.5753 63.0095 34.6254 70.6324 31.118 99.6339C30.7116 100.854 30.4156 102.036 30.24 103.162L66.2191 59.5447ZM66.2191 59.5447C67.0926 59.2849 67.9479 59.0315 68.7856 58.7834C79.9217 55.4846 87.9572 53.1043 94.3773 48.655C100.649 44.3084 107.146 38.4291 108.282 29.821L66.2191 59.5447ZM30.082 106.331L31.1645 106.31C31.1968 105.289 31.2504 104.287 31.315 103.305C32.1788 97.8146 36.1086 90.7567 41.908 84.5688C47.708 78.3802 55.3086 73.137 63.416 71.2243C67.897 70.1704 71.8202 69.7091 75.3636 69.4081C76.4654 69.3144 77.5357 69.2361 78.577 69.1598C80.8685 68.992 83.019 68.8346 85.0528 68.5478C88.0293 68.1281 90.8096 67.4265 93.5433 65.9894C96.2775 64.552 98.9372 62.3937 101.696 59.0952C107.248 52.4645 109.061 44.4341 109.497 38.0974C109.715 34.925 109.589 32.1647 109.408 30.1962C109.317 29.2116 109.213 28.4241 109.131 27.881C109.09 27.6095 109.055 27.3989 109.029 27.2553C109.017 27.1835 109.007 27.1285 108.999 27.0909L108.991 27.0477L108.989 27.0361L108.988 27.0328L108.988 27.0318C108.988 27.0315 108.988 27.0312 108.456 27.1377L108.988 27.0312L107.914 27.1377C107.914 36.9399 100.952 43.4388 94.0685 48.2095C87.7232 52.607 79.7722 54.9628 68.5953 58.2743C67.7695 58.519 66.9262 58.7688 66.0646 59.0251L66.0645 59.0252C59.9882 60.8333 51.5862 63.7887 44.4244 70.3501C37.2498 76.9232 31.3632 87.0742 30.2364 103.186C30.0703 104.291 30.0136 105.351 30.082 106.331Z" stroke="white" stroke-width="1.08416"/>
<path d="M108.449 27.1382L108.989 27.0971L107.907 27.1382C107.907 36.9404 100.945 43.4392 94.061 48.2099L94.061 48.21C91.2231 50.1771 88.0531 51.7319 84.4186 53.1531L84.3733 53.1708L84.3319 53.1963C78.6885 56.6692 70.8692 60.2267 63.6104 63.4516L63.6104 63.4516C40.6474 73.6561 31.4624 92.1627 30.2074 103.624L30.2061 103.636L30.2053 103.648C30.1504 104.505 30.1065 105.373 30.0735 106.274L31.1557 106.336C31.5505 101.272 34.2952 93.7294 39.0652 87.0532C43.8325 80.381 50.5622 74.6573 58.8733 73.0976L108.449 27.1382ZM108.449 27.1382C108.989 27.0971 108.989 27.0974 108.989 27.0977M108.449 27.1382L108.989 27.0977M98.4901 57.5236L98.4899 57.5238C88.5324 68.1508 79.281 69.6746 66.5422 71.7728C64.1215 72.1715 61.5748 72.591 58.8734 73.0976L98.4901 57.5236ZM98.4901 57.5236C104.427 51.1814 107.048 43.5693 108.187 37.5651M98.4901 57.5236L108.187 37.5651M108.187 37.5651C108.757 34.5606 108.958 31.9504 109.016 30.0894M108.187 37.5651L109.016 30.0894M109.016 30.0894C109.046 29.1586 109.039 28.4145 109.025 27.9012M109.016 30.0894L109.025 27.9012M109.025 27.9012C109.018 27.6445 109.009 27.4455 109.002 27.3097M109.025 27.9012L109.002 27.3097M109.002 27.3097C108.999 27.2417 108.996 27.1896 108.993 27.154M109.002 27.3097L108.993 27.154M108.993 27.154L108.991 27.1129M108.993 27.154L108.991 27.1129M108.991 27.1129L108.99 27.1018M108.991 27.1129L108.99 27.1018M108.99 27.1018L108.99 27.0987M108.99 27.1018L108.99 27.0987M108.99 27.0987L108.989 27.0977M108.99 27.0987L108.989 27.0977" stroke="white" stroke-width="1.08416"/>
<path d="M30.0742 106.318L31.1578 106.324C31.1904 105.433 31.2339 104.575 31.2881 103.728L30.2082 103.636C30.1084 104.567 30.0515 105.466 30.0742 106.318Z" stroke="white" stroke-width="1.08416"/>
<path d="M37.7348 90.792C41.5072 85.772 46.626 81.2411 52.3964 78.0902C59.663 74.4011 67.0633 73.1382 74.2075 71.9191C75.4615 71.705 76.7077 71.4924 77.9438 71.2682C86.1951 69.7717 93.9812 67.7588 100.35 61.2566C106.717 54.7555 108.864 46.1749 109.433 39.2721C109.718 35.815 109.609 32.7619 109.428 30.5725C109.338 29.4773 109.23 28.597 109.144 27.9888C109.101 27.6847 109.063 27.4485 109.037 27.2874C109.023 27.2069 109.012 27.1451 109.005 27.103L108.996 27.0547L108.994 27.0418L108.993 27.0382L108.993 27.0372C108.993 27.0368 108.993 27.0366 108.46 27.1377L108.993 27.0366L107.918 27.1377C107.918 37.1131 104.235 46.5111 97.7459 51.9646C94.5161 54.6783 89.6234 56.7552 84.5614 58.3336C79.5129 59.9079 74.3575 60.9683 70.6433 61.6773C54.945 64.6287 44.7322 73.0432 38.4842 82.0892C32.2494 91.1163 29.9504 100.79 30.0845 106.317L31.1669 106.346C31.5554 101.301 33.9575 95.8185 37.7348 90.792Z" stroke="white" stroke-width="1.08416"/>
</svg>
