<svg width="43" height="43" viewBox="0 0 43 43" fill="none" xmlns="http://www.w3.org/2000/svg">
<path d="M18.3646 6.71875H13.8854C11.9847 6.71875 10.1618 7.47381 8.81782 8.81782C7.47381 10.1618 6.71875 11.9847 6.71875 13.8854V29.1146C6.71875 31.0153 7.47381 32.8382 8.81782 34.1822C10.1618 35.5262 11.9847 36.2812 13.8854 36.2812H29.1146C31.0153 36.2812 32.8382 35.5262 34.1822 34.1822C35.5262 32.8382 36.2812 31.0153 36.2812 29.1146V24.6354M24.6354 6.71875H34.4896C34.9841 6.71875 35.432 6.91942 35.7563 7.24371M35.7563 7.24371C36.0923 7.57963 36.2811 8.03528 36.2812 8.51042V18.3646M35.7563 7.24371L34.4896 8.51042L22.8437 20.1562" stroke="black" stroke-width="3" stroke-linecap="round" stroke-linejoin="round"/>
</svg>
